<svg xmlns="http://www.w3.org/2000/svg" viewBox="0 0 3278.7 2481.81"><g id="レイヤー_2" data-name="レイヤー 2"><g id="レイヤー_4" data-name="レイヤー 4"><path d="M598.7,550.51c-.44,11-1.28,21.12-1.18,31.27.26,24.57-7.39,47-17.25,69a111.59,111.59,0,0,1-21.91,31.84c-8.19,8.52-18.15,12.52-30.78,15.1,1.76-3.5,2.24-6.14,3.83-7.38,12.65-9.89,15.22-25.5,21-38.85,6.06-14.09,9.24-29.68,11.85-44.93,5.07-29.67,5-59.39-1.35-89.11-4.95-23.14-13.75-44.94-21.35-67.16-4.08-11.91-9.16-23.49-13.68-35.26-2.85-7.42-6.28-14.65-6.12-23,0-2.5-.71-5.73-2.34-7.45-10-10.53-13.77-24.65-21.34-36.52-8.72-13.66-18.2-26.82-27.08-40.37s-17.19-27.64-26.29-41.11c-9.62-14.24-17.12-29.88-29.48-42.36A105.43,105.43,0,0,1,398.66,202c-7.05-12.51-18.52-20.74-27.73-31.12-22.94-25.87-49.66-48.43-69-77.42-10.28-15.41-25-25.49-39.39-36.06-4.91-3.61-11.41-5-17.13-7.6-3.6-1.61-7.48-3-10.56-5.3C217.45,31.18,200.25,17.62,183,4.11c-.45-.35-.53-1.15-1.28-2.93C184.35.75,186.85-.35,189,.11,196.75,1.8,204.42,3.9,212.07,6c13,3.65,26.06,7.2,39,11.26,14.82,4.67,29.65,9.27,42.16,19.32,5.36,4.31,11.92,7.13,17.95,10.59,33.51,19.25,64.63,41.82,94.26,66.62,11.41,9.55,24.56,17,36.36,26.11,21.22,16.41,43.93,31,62.83,50.31,9,9.22,18.56,18,27.22,27.51,6.84,7.53,12.2,16.4,19.08,23.88,11.89,13,24.55,25.21,36.69,37.94,5.66,5.93,5.52,7.24.31,15.43,9.36,13.83,16.72,29.57,32.62,38.69a227.5,227.5,0,0,1,22.9,15.71c2.8,2.1,4.77,5.35,7,8.22,1.65,2.18,3,4.57,5.34,6.39,1.16-5.24-1.38-9.15-4.39-12.37-6.29-6.74-9.3-16.21-17.9-21.11-1.19-.68-1.85-5.14-1-6,1.57-1.48,5.1-2.76,6.73-1.95,6.49,3.25,12.57,7.33,18.8,11.11,16.95,10.27,29.85,25.13,43.89,38.71a35.33,35.33,0,0,1,4.38,5.36c20.45,29.61,45,54.91,76.61,72.69,3.54,2,5.71,3.65,4.15,8.52-2.11,6.57,2.31,12.23,5.13,17.49,5.31,9.91,7.66,20.45,9.34,31.28,4.81,30.84,8.54,61.88,14.6,92.47,3.73,18.77,10.83,36.81,20.14,53.91a470.77,470.77,0,0,1,22.29,46.62c7.19,17.57,15,34.74,24.52,51.16,5,8.63,9.83,17.34,14.65,26.07a65.61,65.61,0,0,1,2.71,6.56l-10.57,5.81c12.52-.55,18.43-5.15,21.38-17.84,2.46-10.61,3.29-21.35.53-32.4-4.57-18.28-11.59-35.27-22.86-50.41-2.52-3.38-3.05-7-3.35-11.1-.61-8.57-2.5-17-3.39-25.59-.24-2.2.58-5.42,2.13-6.71,2.44-2,4.95-.17,6.56,2.3,5.93,9.15,12.74,17.86,17.6,27.55,12,24,29,43.64,49.61,60.4,15.1,12.28,29.25,25.66,45.93,36.09,12.34,7.72,23.32,17.59,35.13,26.2,14.86,10.85,31.38,18.8,48.66,24.71,17.86,6.11,36.27,10.59,54.32,16.19,11.09,3.44,22.27,6.92,32.82,11.68,11.52,5.2,23.84,5.4,35.78,7.92,10.7,2.27,20.85,2.61,30.6-4,5.21-3.5,6.91-2.31,9,4.14,2,6.29,2.62,13.4,6,18.81a186.23,186.23,0,0,0,20,25.88c6.82,7.56,14.61,14.25,22.19,21.08,4.19,3.77,8.8,7.06,13.23,10.55a7,7,0,0,0,2.47,1.65c3.61.73,7.87.29,10.73,2.1,3.12,2,4.48,6.52,7.42,9a58.77,58.77,0,0,0,27.65,12.9c2.94.53,5.77,1.23,5.09,4.54a8.77,8.77,0,0,1-4.51,5.39c-6.67,2.87-13.7,4.91-20.44,7.63-8,3.21-16.33,5.94-23.46,10.54-4.6,3-9.79,8.6-10.4,13.57-2.3,18.94-5.37,38.15-2.1,57.17,1.54,9-1.14,16.35-4,24-2.78,7.43-7,14.32-9.78,21.73-1.84,4.87-2.57,10.22-3.33,15.42s-3.11,8.5-6.72,8c-4.52-.69-5-4.14-5.49-8.07-1.31-11.21,2.81-21.48,4.68-32.15,1.36-7.78,1.52-15.78,1.9-23.7.07-1.62-1.3-3.32-3.53-4.8-.3,3-.61,6-1,9.68q-14.29,3.92-28.63,7.84c-12.59,3.41-19.89,12.18-24.39,23.86a15.55,15.55,0,0,1-1.53,2.47c-5,.67-7.68-2.17-9.31-6-8.29-19.7-11.24-40-7-61.17,5.62-5.27,3.64-13,6.36-19.34,4.76-11.06,3-21.87-2.48-32.46s-10.17-21.46-15.48-32.08c-4.67-9.37-10.81-17.13-20.56-22.31-7.53-4-13.62-10.64-20.87-15.28-4.94-3.16-11-4.49-16.19-7.37-8.08-4.48-15.81-9.58-23.18-14.1-6.61,10.73-13.55,21.48-19.93,32.57a19.86,19.86,0,0,1-15.83,10.55c-2,.25-3.85,1.73-6.25,2.87,1.11.69,1.45,1,1.64,1,17-5.51,29.71,2.9,41.23,13.48,9,8.28,17.33,17.39,25.52,26.52,7.76,8.66,11.29,19.36,13.1,31l-9.42,7.74c.48.66,1,1.32,1.46,2,5.76-4.05,11.56-8,17.26-12.17,6.72-4.86,13.06-10.32,20.13-14.59,4.54-2.75,10.1-3.82,16.31-6,0,3.33.06,6.41,0,9.48-.53,23-2.07,45.93-1.2,68.81.43,11.37,5.28,22.57,8.13,33.85q.69,2.74,1.36,5.51c-4.24,3.3-7.8,2.12-11.49.14-3.43-1.84-6.87-4.21-10.58-4.89-6.38-1.15-12.51-.86-18.15,4.12-6.16,5.44-13.43,9.63-20.29,14.26-1,.66-2.39.69-4.75,1.32,0-4.24-1.2-8.34.23-11.07,4-7.75,1.25-13.23-4.35-18.24,1.24-2.6,3.38-5,3.21-7.27-.2-2.49-2.1-5.3-4.09-7-.76-.65-4,1.15-5.76,2.28-1,.62-1.52,2.13-2,3.34-4.19,10.58-6.73,21.33-3.92,32.81.6,2.41.8,5.63-.33,7.63-5.1,9.09-3.3,18.24-2.18,27.86.87,7.34-1,15-1.76,22.54-.51,5.27-1.23,10.52-1.65,15.8a29.19,29.19,0,0,0,4.12,17.11c2.36,4.21,3.16,9.31,4.59,14,.28.94,0,2.12.41,3,4.4,8.32,8.89,16.6,14.2,26.45a4.85,4.85,0,0,1-.77,2.75c-2.62,3.88-4.66,3.94-7.78.76-7.66-7.79-14.9-16.07-23.21-23.1a33.22,33.22,0,0,1-10.58-15.23c-6.41-19.51-14.33-38.68-15.27-59.6a43,43,0,0,1,0-5.79c1.39-15.87,4.67-31.83,3.84-47.57-1.11-21.25.2-43.94-14.73-61.84a278.83,278.83,0,0,0-28.66-29c-7.54-6.72-16.34-6.23-24.66-.22-4.52,3.26-9.17,6.33-13.67,9.43-5.43-5.35-8.34-13.51-4.85-17.86,6.25-7.78,6.34-16.26,4.86-25.95l8.41,3.71c-5.29-7.95-11.59-9.46-18-10.64-5.16-.95-8.7,1.65-12.28,5.09-8.11,7.77-17.12,14.32-23.51,24.12-11.48,17.62-18.14,36.78-21.74,57.17-2.47,14.06-1.57,28.08,1.62,42.06,1,4.35.16,9.11.16,14.33,6.35-.82,9-4.89,11.88-8.26,8.25-9.57,15.64-20,24.61-28.81,10.6-10.44,21.47-21,35.1-27.63,7.61-3.73,15.47-5.66,23.66-1,5.15,3,10.58,5.4,16.93,8.61l-10,7.77c-3.07-1.94-5.42-3.76-8-5-5.34-2.54-11-3.38-16.21,0-16.64,10.94-28.91,25.53-28.87,46.16.06,26.84,8.52,50.78,29.77,69.06,13.36,11.49,27,22.45,42,31.73,5.85,3.61,10.08,10,16.1,13.16,9.21,4.75,11.42,11.09,8.77,20.44-1.07,3.76-1.23,7.78-1.71,11.06-15.77,7.84-30.81,15.32-45.84,22.81-11,5.47-22.15,10.53-32.77,16.6A179.43,179.43,0,0,0,983.58,1307c-2.36,1.92-3.6,6.22-3.84,9.54-.41,5.53.51,11.15.66,16.73s0,11.07,0,18.1c1.47-2.37,3.16-3.83,3-5.1-.94-8.94,5.27-13.1,11.28-17.26,10.89-7.53,22.27-14.4,32.81-22.38,8.74-6.62,18.49-6.44,28.32-6.25,14.68.28,29,0,42.37-7.68,11.21-6.44,23-12,34.61-17.6,10.67-5.16,19.49-12.47,27.37-21.21,6.45-7.15,13.35-13.88,20-20.83a17.18,17.18,0,0,0,3.12-3.83c8.87-17.49,16.65-35.45,22.07-54.34.51-1.77.59-4.34-.34-5.73-4.83-7.21-10-14.18-15.15-21.2-1.37-1.87-3.41-3.4-4.29-5.45s-1.93-5.55-.91-7,5-2.35,6.8-1.53c4.77,2.19,10.06,4.59,13.32,8.44,6.15,7.3,10.61,16,16.52,23.52,6.52,8.31,5.34,16.31,2.16,25.5-4.2,12.09-3.5,24.85-1,37.26a15.8,15.8,0,0,1-1.47,11.4c-4.87,9.07-10.38,17.87-14.39,27.31-3.73,8.8-6.27,18.18-8.56,27.49-1.85,7.53-4.31,13.22-13.6,12.22-1.76-.19-3.65,1.64-5.54,1.79-2.9.23-6.6.91-8.66-.51-13.45-9.25-25.08-5.24-36.28,4-.75.63-1.46,1.29-2.1,1.85-.77,11-.51,12,5.3,19.29-.32-4.53-.56-7.92-.88-12.43,10.24,3.75,19.86,7,29.22,10.88,2.51,1,4.74,3.73,6.16,6.2,4,6.89,8.21,13.78,11,21.19a67.25,67.25,0,0,0,21.55,29.4c9.92,8,18.65,16.86,25.21,28,2.91,4.93,3.14,11,7.95,15.27,2.49,2.22-.79,6.7-5.43,7.19-4.94.52-10,.49-14.93.63-9.74.28-17.43,6.19-25.57,10.18-14,6.86-27.08,15.32-34.87,30-2.15,4-6.25,7-11.82,4.75-13.84-5.5-27.88-10.52-41.54-16.44-7.43-3.22-8.15-15.16-1.45-20,3.71-2.66,8.18-5.63,12.44-5.86,6.32-.33,9-4.5,12.91-7.89,12.78-11,16.85-25.67,18.81-41.6,1.17-9.44-4.05-14.94-10.27-20.22a4.45,4.45,0,0,0-2.71-1c-10.9.14-24.68,6.42-26.57,19.54-1,7.17-2.26,14.31-3.59,22.67-2-1.86-4.16-2.89-4.41-4.25-1.09-6.15-2.59-12.46-2.18-18.6.58-8.78-1.89-16.41-6.16-23.61-7.45-12.54-31.93-21.84-45.93-17.15-7.52,2.53-14.65,6.22-21.94,9.43-11.54,5.09-23,10.28-34.59,15.32-11.76,5.12-21.65,12.72-31,21.5-4.91,4.64-11.58,7.36-17,11.59-4.33,3.42-8.06,7.66-11.79,11.78-5.92,6.51-11.62,13.22-18.53,19.32-1.65-9.56-.41-18.37,4.74-26.26a238.41,238.41,0,0,1,14.09-19.36c3.73-4.62,7.81-8.88,14.28-10.26,2.87-.62,5.84-3,7.78-5.4,10.89-13.45,18-28.59,18.93-46.13.25-4.8,1.56-10-3.24-14.31l-7.25,2.31-1.53-5.52c-7.48,1.81-13.77-1.2-20.11-5-8-4.82-17.14-4.57-26-3.27-7.81,1.14-11.19,5.57-13.37,17.63l6.8-10.75c7.3,5.46,7.7,13.06,6.93,20.44-.36,3.45-.14,5.56,2.52,7.62,4.41,3.43,3.72,6.92.54,11.11-6.46,8.49-11.7,17.75-14.59,28.11a70.69,70.69,0,0,0-2.39,12.63c-.3,3.28-1.05,5.76-4.18,7.28-3.37,1.63-5.2-.2-7.75-2.22-8.35-6.6-17.09-12.81-28.43-12.77a39.91,39.91,0,0,0-9.79,1.28c-8.29,2.2-16.35,5.84-24.75,6.85-13.68,1.66-27.65,2.88-41-2.61-.77-.32-1.21-1.44-1.79-2.17,4.5-3.76,8.6-7.76,13.25-11,6.3-4.31,10.88-9.72,13.2-16.95,3.18-9.91,12-15.63,17.52-23.79,3.85-5.69,8.23-11,12.8-17.08-.39-1.62-2-4.58-1.35-6.84.57-1.89,4.14-2.67,5.9-4.43,3.45-3.45,6.52-7.29,9.85-10.87a45.36,45.36,0,0,1,6.35-6.13c9.94-7.21,19.77-14.64,30.12-21.22,11.46-7.28,23.31-14,35.27-20.44,7.27-3.92,15.06-6.88,23.24-10.55-.76-15.73-6.65-28.4-18.59-38.25a3.56,3.56,0,0,0-1.73-1c-11.28-.62-22.69-4.44-33.44,3.1a156.29,156.29,0,0,1-22.33,13c-4,1.92-9,1.91-13.52,2.76-1.86.35-3.73.68-5.75,1,.24,1.49.11,2.63.59,3.37,10.29,15.56,6.44,31-.3,46.42-2.65,6.07-5.19,12.32-8.85,17.77-3.23,4.8-8.16,8.43-12,12.89q-11.89,14-23.36,28.31c-6.4,8-12.84,15.83-20.42,22.82-7,6.48-14.46,13.26-19,21.41-6.18,11-14.35,21.34-15.7,35l4.59-5.69c4.75,5.07,8.88,10.32,13.9,14.51,2.43,2,6.51,2.86,9.84,2.85,4.93,0,10.18-.43,14.72-2.17,7-2.69,13.21-1.39,18.88,2.33,10.8,7.08,21.28,14.66,31.78,22.2,2.61,1.88,3.94,4.52,1.62,7.72-2.2,3-5.22,3.32-7.82,1.31-5-3.85-10.48-3.59-16.09-3.1-11.07,12.39-12.76,20-4.55,32.6,4.07,6.24,8.63,13.35,16.37,16,7.56,2.62,14.87.67,22.22-2.39,16.2-6.74,32.81-12.5,49-19.32,10-4.24,19.42-10.06,29.39-14.51A153.59,153.59,0,0,0,979,1431.25c1.93-1.84,6.72-3,8.74-1.9,3.74,2.08,2.61,6.28.57,9.66-1.54,2.56-3.51,4.89-4.82,7.56-4.31,8.76-1.36,15.18,8.13,17,6.15,1.2,12.49,2.29,18.71,2.12,14-.36,27.87-.32,41.75,1.88,14.72,2.32,30,2.64,44.15,6.74,14.84,4.28,29.28,11,42.77,18.58,11.1,6.28,20.57,15.45,30.73,23.38,1.57,1.22,2.75,3.14,4.47,4,16.14,7.6,19.53,23.48,24.57,38.13.69,2-1.09,6.18-3,7.41-2.78,1.81-5.32-.32-6.75-3.52-1.34-3-3.22-5.81-4.85-8.71-7-12.48-19.75-17.54-31.57-23a331.87,331.87,0,0,0-44.64-16.91c-11-3.31-22.83-4-34.25-6.07a180.67,180.67,0,0,0-37.53-2.37,97.76,97.76,0,0,1-20.8-1.92c-13.19-2.46-25.61,1.22-38.22,3.72a137.18,137.18,0,0,1-13.66,2.54c-19.31,1.85-38.06,5.34-54.67,16.27a22.15,22.15,0,0,1-7.36,3c-17.23,3.76-30.9,12.75-42.17,26.34-3.37,4.06-9.15,6.62-14.31,8.6-16.82,6.47-28.82,18.55-39.46,32.4-4.85,6.31-9.91,12.48-14.4,19-14.16,20.69-21.55,44-25.61,68.48-2,12.09-5.29,24.49-4.28,36.43,1.08,12.67-.38,25.44,2.06,38,.75,3.86-.92,8.45-2.39,12.37-.71,1.92-3.5,3.06-6.34,5.35-1.14-14.22-1.94-26.7-3.19-39.12-1.15-11.5-1.36-23-5.06-34.33-2.49-7.64-1.89-16.34-2.3-24.58-.56-11.62-1.08-23.18,1.36-34.79a346.16,346.16,0,0,0,5.8-37.32c.67-6.79-.4-13.85-1.46-20.67-.35-2.23-3-4.25-4.85-6-3.8-3.65-7.81-7.09-11.92-10.79,2.26-4.21,5.24-6.18,9.09-4.44a7.27,7.27,0,0,0,9-1.8c9.87-11.12,21.63-21,25.3-36.46,2.29-9.69,5-19.35,3-29.45-1-4.91-2-9.87-7.33-12.26-.88-.4-2.06-.93-2.38-1.7-3.31-7.89-8.89-12.7-17.32-14.94-3.71-1-3.95-7.65-.13-9.82,4.68-2.65,10.14-3.93,15-5.72-4.34-1.77-5.83-7.26-8.74-11.78a27.33,27.33,0,0,0-7.67-7.67c-7.72-5.12-15.77-9.77-23.7-14.59-.84-.51-2.22-1.5-2.59-1.23-6.65,4.79-11.76-1.34-17.5-2.46a38,38,0,0,0-26.91,4.56c-5.6,3.19-10.38,14.41-9,20.69,1.27,5.71,4.1,11.32-.77,16.94-1,1.18-.26,3.87-.37,5.87-1,18.62-1,37.17,3.92,55.38a19.7,19.7,0,0,1,.82,4.86c0,3.72-1.58,7-5.41,7-1.75,0-4.16-2.8-5.1-4.86-6-13.32-6.28-27.67-6.49-41.91-.2-13.54-.23-27.1.43-40.61.38-7.84-2.53-12.78-9.52-15.6-3.05-1.24-6.2-2.28-9.35-3.23-8.94-2.7-9.79-5.4-3.4-13.88-2.71-1.33-5.23-3.6-7.8-3.64-11.86-.23-24-2.43-35.34,3.19a5.52,5.52,0,0,1-1.81.79c-13.12.85-19.29,11.13-25.15,20.29-6.57,10.28-8,22.43-5.61,34.67q1.37,6.81,3.26,13.51c1,3.51-.18,6.18-3.29,7.32-3.33,1.22-5.09-.71-6.77-3.93a100,100,0,0,0-10.38-15.81c-4.43-5.57-10.1-9.48-17.52-10.54-4.09-.59-7.75-.83-11.22,2a23.25,23.25,0,0,1-6.15,3.27c-17.6,7-22.6,22-24.65,38.84-1.36,11.16-3.08,22.35-3.34,33.55-.44,19.69-1.48,39.59,6.34,58.42,1.76,4.24,3.94,8.31,5.71,12.55,3.43,8.23,6.6,16.58,10.08,24.79,1.47,3.44,1.92,7.65,7.06,10.79-1.12-6-2-10.53-3.19-16.93,3.93,1.47,6.35,2,8.45,3.21,17.3,9.53,35.7,11.53,54.93,8.43,2.61-.42,5.64-1.17,7.85-.25a10.65,10.65,0,0,1,5.63,5.82c1.06,3.46-2.53,4-5.06,4.67-9.6,2.47-19.17,5.12-28.85,7.2-5.09,1.1-7.07,3.75-7.75,8.74-2.42,17.89-3.58,35.61,3.71,52.82,1,2.35,1.29,5,2.15,8.48l-12-4-1.14,2.17c2.2,1.56,4.42,3.09,6.6,4.69q7.93,5.85,15.83,11.75c1.32,1,2.37,2.53,3.83,3.13,13.55,5.6,23.15,16.37,34.18,25.38,10.22,8.35,21.6,15.27,32.36,23,29.48,21.1,59.09,42.14,77,75.1a199.45,199.45,0,0,1,18.32,47.1c4,16,8.33,31.85,12.22,47.84,3.63,15,2.45,30.16,2.36,45.41-.17,26.38-8.48,50.92-14.75,76a27.76,27.76,0,0,1-2.27,6.53,307,307,0,0,1-55.83,73.69c-8,7.8-16.54,15.15-25.09,22.39q-11.36,9.62-23.33,18.46c-4.86,3.59-5.83,3.31-11.86.56.66-1.42,1.05-3,2-4.21,14.78-18,30.27-35.6,41-56.31,13.78-26.55,26-53.87,29.5-84.15a149.89,149.89,0,0,1,3.15-16.63c4.53-19.29,2.44-38.51-2-57.29-2.66-11.19-9.45-21.39-12.11-32.57-6.41-26.86-24.05-46.93-38.85-68.87-14.54-21.56-33.67-38.54-53.75-54.28-15.33-12-32.32-22-49-32.23-11.93-7.36-22.82-4.22-31.58,4.63a59.76,59.76,0,0,1-7.34,6.73c-2.43,1.75-5.48,1.37-7-1.21-1-1.65-1.31-4.74-.38-6.23,2.78-4.47,6.34-8.47,9.57-12.68,14.87-19.37,9.31-35.75-5.67-51.4-7.14-7.46-16.54-10.87-25.5-15.11-6.6-3.11-13.24-6.17-20-8.83-23.53-9.21-47.43-12.15-71.94-3.79a50.13,50.13,0,0,1-11.53,2.85c-1.85.16-5.47-1.72-5.51-2.79-.09-2.16,1.12-5.42,2.84-6.42,4.55-2.64,9.65-4.34,14.54-6.37,12.72-5.28,23.42-13.26,28.9-26,3.06-7.15,3.79-15.35,5.22-23.14,2.15-11.64-1.13-22.92-3-34.25-.34-2.11-2.25-4-3.52-5.9-2.71-4.09-5.48-8.14-9.3-13.8,3.53.43,6,0,6.63.93,3.72,5.13,8.68,7,14.74,6.64.65,0,1.59-.1,1.93.27,8.48,9.37,22.05,6,31.68,12.74,3.4,2.38,7.9,3.18,12.82,5-.87,4.13-1.71,8.11-2.69,12.73,5.7-4.3,9-12.67,7.68-20.09-2.12-12.06-3.5-24.43-7.25-36-6.94-21.41-14.14-43-28.39-61-4.27-5.39-9.79-9.85-15.05-14.36-4.46-3.82-10.21-6.42-13.83-10.83a16.89,16.89,0,0,1-3.17-12.47,131.37,131.37,0,0,1,25.31-55.39c4.87-6.28,9.24-12.94,13.76-19.49,1.48-2.15,2.35-4.84,4.16-6.62,3.75-3.72,7.94-7,12.1-10.57l8.48,6.47,1.17-1.11a43.94,43.94,0,0,0-3.16-4,72.37,72.37,0,0,1-15.31-22c-4.19-9.57-10.83-17.48-18.44-24.61-4.51-4.22-9.47-6.1-15.39-3.39-6.32,2.89-12.8,5.54-18.78,9-12.22,7.13-24.43,14.36-36.09,22.36-5.33,3.65-10.54,8.51-13.76,14-10.47,17.94-21.66,35.58-28.59,55.37a8.33,8.33,0,0,1-1,1.74c-6.41,9.85-9.57,20.72-10.87,32.35-.21,1.89-3.05,4.15-5.17,5-4.59,1.91-9.5,3-14.26,4.49-1.77.55-3.48,1.27-5.22,1.91l.48,2c3.95-.83,7.92-1.52,11.84-2.49,14.16-3.49,28.17-7.77,42.48-10.47,21.8-4.11,40.22,2.68,53.67,20.56,7,9.25,12.75,19.4,19.11,29.12a76.46,76.46,0,0,0,6.25,9c16.1,18.11,26.21,39.89,37.65,60.86a20.51,20.51,0,0,1,1.56,4.73c.14.54-.21,1.22-.44,2.32-1.1.12-2.73.83-3.56.3-9.53-6.17-21.54-5.79-31.09-12.31-5.25-3.58-12-4.95-17.9-7.6-5.36-2.4-10.87-4.71-15.75-7.91-7.84-5.13-15.64-9.94-25-12-16.16-3.63-32.23-7.71-48.39-11.36a33.68,33.68,0,0,0-9.93-.4c-11.2.94-22.45,1.67-33.53,3.38a163.6,163.6,0,0,0-26,6.28c-10.4,3.41-20.48,7.82-30.68,11.84a10.84,10.84,0,0,0-3.47,1.9c-8.92,8.32-17.84,16.67-26.64,25.13-9.25,8.88-18.81,17.49-27.44,27-13.94,15.26-30.2,27.47-47.47,38.5a31.1,31.1,0,0,1-8.08,3.7Q38.29,1674.62,12.85,1715c-4,6.31-7.81,12.73-12.18,19.88-2.17-11.81,1.17-21.87,6.44-30.45,9-14.72,20-28.3,35-37.51A158.94,158.94,0,0,1,67,1654.37c19.91-7.78,36.41-20.16,51.11-35.34,4.86-5,10.09-9.67,14.94-14.68a100.4,100.4,0,0,0,7.58-9.12c3.62-4.75,6.44-10.33,10.76-14.27,12-10.91,17.81-25.44,24.71-39.35,3.83-7.74,7-15.82,10.25-23.81,3.16-7.67,6-15.44,9.14-23.13,5.66-14.13,11.53-28.17,17-42.37a87.42,87.42,0,0,0,4.51-16.17c.87-5,5.22-6.76,7.87-5.76,11.87,4.5,17.67-4.41,23.56-10.76,13.19-14.22,22-31.17,29.69-49.13a382.32,382.32,0,0,0,18.62-55.62c3.64-14.2,8-28,12.86-41.8s6.36-28.52,6.51-43.21c.12-11.56.2-23.14-.36-34.68-.33-6.88,5-10.61,7.26-16,1.89-4.4,4.4-7.52,10.82-5.22.53,3,1.39,6.48,1.69,10,.43,5,1,10,.52,15-1.09,12.17,3.58,20.41,15,25.07,3.31,1.35,6.14,3.9,10.69,6.88l-15.83,6.66c6.88.54,10.61-.5,16.5-3.46a202.31,202.31,0,0,0,54.87-40.69c5.55-5.74,11.39-11.23,17.45-16.41,17.44-14.9,29.92-33.7,42-52.81,9.78-15.42,20.6-30.3,29.14-46.38,9.62-18.12,17.47-37.2,25.57-56.09,4.17-9.73,7.27-19.92,10.75-29.94,10.44-30.06,20.28-60.34,31.43-90.13,7.1-19,13.55-38,18.8-57.61,7.19-26.77,8.75-54.27,11.74-81.62A160.43,160.43,0,0,1,608.68,738c4.6-17.06,7.48-34.24,7.59-52,.07-10.91,1.77-21.8,2.59-32.71.27-3.62.76-7.41,0-10.88-2.7-12.6-5.74-25.14-8.93-37.63-2.46-9.66-5.76-19.13-7.85-28.86-1.1-5.1-.26-10.6-.54-15.9C601.4,557,602.77,553.38,598.7,550.51Zm-49.6,577.78-1.57-.33c-.2,1.89-.79,3.84-.52,5.67,2,13.79,4.28,27.49,12.49,39.35,9.24,13.37,18.21,26.92,27.48,40.27,6.78,9.78,18.12,13.45,28,8.38,8.52-4.39,17.44-8.84,24.44-15.18,15.27-13.81,29.47-28.85,40.92-46.12,7-10.5,13.21-21.49,19.85-32.21a27.51,27.51,0,0,1,4.74-6.38c13.58-12,19.87-29.32,31.62-42.61a3,3,0,0,0,.49-.87c3-7.37,6.42-14.61,8.91-22.15,3.33-10.1,6-20.44,9.07-31.35,1.37,4.1,2.53,7.61,3.7,11.11,1-2.57,1.49-5,.92-7.11-4-14.68-8-29.36-12.34-43.93a90.46,90.46,0,0,0-16.6-31.61c-2.25-2.74-3.31-6.16.11-8.75,3.26-2.46,6.07-.88,8.66,1.87,10,10.64,20.18,21.16,30.29,31.73l18.74,19.58c4.51-1.13,6.54-2.78,7.17-6.84A230.68,230.68,0,0,1,801,965.59c2.62-9.55,6.56-18.75,8.88-28.35,3-12.21,5.32-24.6,7.13-37a65.5,65.5,0,0,0-10.2-46.53c-.77-1.18-1.08-2.66-2-4.89,3.68.23,6.3.37,8.91.56,2.14.16,4.28.39,6.42.59,0-.84.08-1.67.13-2.5-10.11-1-20.11-5.33-30.46.78-1.58.93-5.3.84-6.17-.25-1.36-1.71-1.41-4.68-1.45-7.12,0-1.11,1.38-2.2,2-3.36,4-7.25,9-14.17,11.72-21.88A219.93,219.93,0,0,0,805.09,781c1.15-6.31,1.26-13.88-1.2-19.56-5.38-12.4-12.69-24-19.22-35.86-4.3-7.83-10.7-12-19.82-12.9-4.73-.49-9.17-4.41-13.86-4.66-5-.28-10,2-15.11,3.1-.45-2.36-.77-4-1.25-6.6-4.49,2.58-8.26,4.62-11.9,6.87-14,8.61-28.31,14.87-45,7.91-.43-.18-1.15.36-3.87,1.31l17.91,6.17c-.12,2.68,0,5.33-.4,7.92-2.61,18.47-7.77,36.29-14,53.83-3.32,9.36-6.27,18.85-9.56,28.22a54,54,0,0,1-4.12,9c-4.61,8.07-9.41,16-14.13,24-6.45,10.94-8.85,22.77-8.21,35.39.66,13,6.55,20.4,19.3,24.27,2.48.75,4.58,2.75,5.74,3.47-2.08,5-5.15,8.65-4.61,11.69,1.46,8.14-1.77,14.26-6.06,20.33-5,7-9.79,14.23-15.13,21a113.21,113.21,0,0,0-18.78,33.84c-6.36,18.81-13.58,37.1-24.88,53.57-.7,1-1.36,2.77-1,3.74,2.42,5.87-1.72,9.09-4.65,13a22.34,22.34,0,0,0-3,6c-1.81,5.18-2.68,10.82-5.2,15.6-8.17,15.5-16.88,30.73-25.5,46-1.15,2.06-3,3.75-5.74,7.19Zm455.19-277.13c-5.45,8.48-5.44,8.44-13,5.87-11.75-4-23.81-6.13-36.22-5.32-2.65.18-5.93,1.38-7.64,3.27-3.26,3.61-7.08,4-11.48,4.76C910.84,863.8,893,877.43,885.63,902c-10.91,36.16-9.11,71.33,11.32,104.32,4.17,6.72,7.86,13.73,11.68,20.66.6,1.1,1.28,2.66.93,3.68-2.43,7.11-1.63,15.08-6.19,21.67s-5.38,14.15-6,21.8c-.22,2.63-.7,5.24-1,7.87-1.16,9.24-1.78,18.36.74,27.64,1.79,6.59,2.72,13.23.91,20.54-1.62,6.57-2.09,14.18,1.77,22.51,9.37-7.18,18-13.76,26.61-20.45,1.25-1,2.75-2.34,3-3.74,1.1-5.8,2.69-11.71,2.43-17.51-.67-14.75-2.34-29.44-3.38-44.18-.32-4.56-.75-9.4.38-13.73,3.67-14.09,7.58-28.16,12.37-41.91a65.36,65.36,0,0,1,10.31-18c8.32-10.74,17-21.19,26.26-31.16,6.48-7,13.3-14.19,21.27-19.25,13-8.25,23.58-17.83,27.3-32.72l7.64.66c-6.2-6.49-12.83-5.87-19.56-5.71-2.13,0-5.95-1.89-6.11-3.25-.3-2.47.84-6.15,2.71-7.62,3.8-3,8.28-6.06,12.86-6.83,8.55-1.44,11.82-7.76,15.74-13.82,9.09-14.05,4-41-8.7-50.09-11.8-8.48-23.48-17.21-33.09-28.37-2.33-2.71-5.82-4.39-8.66-6.69-14.4-11.68-30.12-21.85-41.45-37-2.21-3-5.61-5.06-10-8.93-4.42,14.81-9.13,27.58-11.84,40.76a44.68,44.68,0,0,0,3.69,28.28c1.9,4,4,7.4,8.37,9.36,8.74,4,17.2,8.53,25.93,12.51,9.63,4.38,19.46,8.34,29.17,12.56C996.51,847.35,1000,849.1,1004.29,851.16ZM887.52,1154.59c.57-6.31,2.08-13.6,1.64-20.77a131.07,131.07,0,0,0-4.46-25.33c-.84-3.13-4-6.08-6.87-8.14-6.17-4.49-12.74-8.43-19.25-12.46-9.37-5.8-19.05-7.85-30.22-4.78-6.32,1.74-10.24,5.75-14.83,9.45a129.29,129.29,0,0,0-32.08,39.08A267,267,0,0,1,759.69,1165c-3.21,4.23-6,8.8-9.15,13.08-6.13,8.3-7.37,18.39-5.94,27.52,2.33,14.87,5.85,29.7,12.7,43.55,4.58,9.27,7.51,19.35,11.46,29.79-12.26,2.39-23.31,4.29-34.22,6.76-7.72,1.74-15.26,4.32-22.91,6.43-7.48,2.06-15.75,1.3-22.27,6.84-3.74,3.17-8,5.75-12.05,8.53-16.59,11.35-36,14.9-54.95,19.42-10,2.37-20.1,4.11-30.13,6.29-21.27,4.63-31.48,19.66-36.2,39.72,1.85-2.4,3.69-4.81,4.58-6,6-.36,11.5-2.36,14.72-.48,4.17,2.42,7.19,1.49,10.93.82,1.54-.28,3.23.41,4.86.43,3.15,0,6.31,0,9.46-.13,8.26-.38,16.52-1.16,24.77-1.09,3.11,0,6.12,2.55,9.3,2.94,18.4,2.26,36.86,4.14,55.27,6.34,6.67.8,13.27,2.14,21.21,3.46l-6.85,6.42,1.11,1.67c4.36-2.69,8.76-5.31,13.08-8.06,13-8.32,19.32-27,13.45-41.18-1.31-3.15-4.13-5.71-6.43-8.4-3.1-3.64-6.84-6.82-9.45-10.76-3.62-5.47-1-9.64,5.67-9.76,1.94,0,3.9.65,5.85,1,2.92.51,5.88,1.62,8.75,1.42,9.93-.72,19.88-1.56,29.72-3a20.48,20.48,0,0,0,14.23-8.46c5.45-7.9,11-15.76,15.93-24,5.32-8.89,7.19-18.27,2.94-28.51a66.26,66.26,0,0,1-4.86-18.24c-1.76-16.76-6.35-31.78-20.42-42.65-3.45-2.66-5.82-6.71-8.41-9.79,3.36-5.2,6.23-4,9.08-1.57,8.75,7.51,19.5,8.68,30,7.43,18.48-2.21,36.51-6.82,53.49-14.92C867.23,1163.42,876.67,1159.44,887.52,1154.59ZM690.87,696.75c4.2.62,9.11,2.26,13.84,1.86a87.65,87.65,0,0,0,33.22-9.38c4.84-2.5,6.57-5.89,7.06-10.89,1.27-12.8,2.92-25.56,4.2-38.35,1.12-11.21,1.94-22.45,2.89-33.67.39-4.62,1-9.23,1.13-13.85.45-17,.7-33.74-6.51-49.91-3.16-7.1-4.12-15.35-5.13-23.2-.86-6.77-2.31-13-6.54-18.46a78.85,78.85,0,0,1-13.71-27.44c-3.25-11.62-11.3-20.19-19.85-28.12-6.18-5.73-8.27-5.48-15.78-.64a113.22,113.22,0,0,0-27.53,25.35,322.78,322.78,0,0,0-32.78,50.89c-.14.25.53.93,1.08,1.82l6.71-7.16c9,31.39,14.16,62.34,24.27,91.92C667.59,637.25,676.56,667.4,690.87,696.75Zm-146,486.51c-2.4,1.89-5.36,3.29-6.94,5.62-4.7,7-11.88,10.56-18.72,14.51a217.07,217.07,0,0,0-35.13,25.92c-9.18,8.13-18.74,15.92-28.68,23.11-16,11.58-31.61,23.3-36.22,44.13-2.61,11.82-4,23.32,4.12,34.07,8.91,11.84,17.12,24.21,25.8,36.22,1.44,2,3.75,3.37,6.1,5.42,11.73-11.84,26.66-14.75,41.26-18.45,1.72,3.46,3.31,6.68,5.42,10.92-.73-11.77-1.34-21.89-2-32a10,10,0,0,0-.77-3.89c-2.5-4.84-.28-7.59,3.28-11,14-13.6,28.92-26.17,42.51-40.31,14.77-15.36,25.8-32.72,37-51.63C571.26,1211,565.38,1191.92,544.9,1183.26Zm15.16-839.41-1.35,2.39a33.55,33.55,0,0,0,4.6,3.54c7.76,4.16,12,10.65,15.13,18.87,3.59,9.54,8.57,18.59,13.37,27.63,10.42,19.61,17.07,40.11,16.37,62.64-.14,4.58-.47,9.77,1.4,13.68,4.93,10.33,11,20.11,16.94,30.63,16.94-25.77,33.84-50.72,61.51-68.5-7.43-3.59-12.94-6.38-18.56-8.93-4.43-2-8.71-4.39-8.83-9.79-.28-11.83-8.77-17.24-17.09-22.84-7.15-4.82-14.18-9.87-21.65-14.12s-15-8.58-23.15-11-14.27-6.43-20.47-11.61C572.64,351.72,566.17,348,560.06,343.85Zm444.22,895.31.78-3.27c-4.21-1.19-8.39-2.48-12.63-3.56-13.73-3.48-22.58-12.51-26.5-25.59-2.93-9.78-3.86-20.16-5.81-30.24-.62-3.22.29-7.3-5.22-9.57,2.39,9,0,15.32-6.13,21-5.24,4.88-10.12,7-17,4-3.24-1.42-6.92-1.82-10.41-2.69-.18.7-.36,1.4-.53,2.1,3,1,6,2.27,9,3.07,10.16,2.65,16.37,9.07,20.32,18.79,3.7,9.1,6.5,18.1,5.58,28a39.35,39.35,0,0,0,.33,6l1.62-.07c.76-3.38,1.52-6.75,2.34-10.36C975.09,1233.35,989.68,1236.63,1004.28,1239.16Zm225-278.86c-4.64-7.09-9.7-14.75-14.69-22.44-4.14-6.38-8.78-12.52-12.12-19.3-2.27-4.59-5-5.89-9.38-4.62-7.65,2.23-15.13,3-22.44-1.86,2.38,5.85,6.74,9.12,11.71,11.69,7.27,3.75,12.56,9.39,17.1,16.18a95.6,95.6,0,0,1,12.65,26.81c3.3,11.43,4.64,12.38,16.65,12.56.47,0,1-.58,2-1.24l-6.19-3.19ZM827.5,1071.55c-.08.82-.15,1.63-.23,2.44,20.78-4.36,36.36,9.08,53.81,15.58,1.13-10.33,1.68-19.94,3.32-29.36,2-11.46.17-14.5-13-16.45l6.68,6.19c-4.9,2.15-8.81,3.71-12.58,5.55-4.69,2.29-9.83,4.13-13.77,7.39-5.62,4.65-11.12,8.16-18.77,7.18C831.23,1069.85,829.32,1071,827.5,1071.55Z"/><path d="M1963,1259c15.92-8.25,28.8-18.69,38.16-33.22a14.47,14.47,0,0,1,4.65-4.72c6-3.43,9.48-1.75,9.89,5.15.53,9.1,5.27,15.28,12,20.77,10.74,8.72,21.23,17.75,31.62,26.89,5.12,4.49,5.21,10.64,3.23,16.49-4.14,12.23-8.73,24.31-13.26,36.41-.79,2.14-1.82,5.41-3.37,5.82-7.15,1.92-7.61,7.42-8.19,13.12-.13,1.31,0,3-.74,3.82-1.22,1.38-3.08,3.06-4.62,3a5.67,5.67,0,0,1-4.21-3.33c-1.7-6.63-3.69-13,.36-20.06,6.84-12,6.4-25.53,4.85-38.79-.74-6.36-5.56-10.4-10.56-13.91a4.19,4.19,0,0,0-2.74-1c-7.25,1.63-14.87,2.72-20.27,12.11l8.84-4.6c.46,2.68,1.36,4.63,1,6.33-3.08,15.2.85,29.69,5.14,43.87,2.38,7.87,1,13.81-3.46,20.08a49.8,49.8,0,0,0-5.77,11.42c-3.73,9.92-1.32,19.77,4.54,27.41,6.53,8.51,7.77,18,9.38,27.63.92,5.47,1.87,10.48,8.41,12.86,8.82-4.15,15.83-11.3,22.69-18.4,6.29-6.5,12.27-12.71,21.85-14.34,5.84-1,11.43-3.43,17.12-5.26,5.3-1.7,10.35-4.28,16.29-1.56,2.17,1,5.2.16,8.19.16a30.75,30.75,0,0,0,1.43-4.73c1.23-9.24,1-18.17,6-27.32,5.56-10.11,1.59-22.59.7-33.15,2.22-5.08,5.25-9.52,6.06-14.34,2.06-12.3,4.43-24.67-.87-37-3.05-7.11-1.4-8.75,6.25-9.94a22.66,22.66,0,0,0,8-3.49c4.5-2.79,8.77-5.93,13.11-9,9.46-6.56,18.92-13.14,29-20.12.32.2,1.92.63,2.42,1.62,6.58,13,18.71,20.5,29,29.8,2.45,2.22,5.72,3.73,7.66,6.29,2.57,3.37,4.2,7.45,6.9,12.45-3.42,3.16-6.64,6.94-10.6,9.63-15.87,10.81-25,26.09-29.79,44.19-1,3.84-.36,8.33-5.82,9-3.37.42-10.05-4.43-11.09-8.69-2-8.14-3-16.41,1.16-24.33a54.51,54.51,0,0,1,3-5.19c5.2-7.85,7.73-15.64-1.62-23.62-8.17.47-12.63,7.83-16,14.57-8,15.66-12.34,32.18-6.64,50,1.59,5,1.6,10.44,2.77,15.57.87,3.78,2.45,7.4,4,12,5.17-3.89,11.39-5,10.57-13.52,7-1.48,14.33-2.15,21-4.67a105.68,105.68,0,0,0,22.92-11.78c13.32-9.31,26-19.55,38.84-29.53,11.8-9.18,23.34-18.71,35.29-27.69,3-2.28,7.2-3.06,11.53-4.8l10.48,12.76c-2.08,1.4-3.63,3.35-5,3.25-14.23-1-22.78,8.21-30.7,17.55-15,17.68-29.29,35.93-44.05,54.15l-3.74-1.67c-3.55,6,1.52,25,9.58,35.82,15.39-1.08,29.23-6.77,41.91-15.67a34.78,34.78,0,0,0,11.68-13c5.5-10.84,15.2-18.35,24-26.35s18.06-15.6,27.54-22.82c10.19-7.76,14-18.86,18.21-30.16,3.25-8.65,7.53-17.17,14.47-23.62,9.66,5.5,11.36,9.46,6.71,16.77-8.79,13.83-11.76,29.44-14.39,45.14q-2.8,16.68-4.64,33.53c-1.83,17.1,4.24,32.68,10.28,48.15a84,84,0,0,0,10.21,19c1.81-7,3.92-13.89,5.36-20.94,1.94-9.44,3.73-18.86,8.67-27.36,1-1.64,1.13-3.74,1.7-5.62,1.51-5,1.68-11.23,4.84-14.79,7.31-8.23,8.74-18.49,12.13-28.07,4.32-12.19,8.29-24.51,12-36.89,2-6.65,3.16-13.56,4.81-20.32.73-3,.41-7.77,5.29-6.67,4.25,1,4.78,5.4,4.26,9-1.08,7.51-2.53,15-4.2,22.39-4,17.77-8.41,35.44-12.27,53.24-1.88,8.71.11,17.15,3.83,25.15,1.67,3.61,4.47,5.73,8.64,5.57s4-3.7,5.29-6.27c7.47-14.28,11.31-29.82,15.41-45.21,3.24-12.15,5.34-24.6,7.92-36.92.68-3.25.78-6.72,2-9.76,6.48-16.43,4.17-33.48,3.86-50.37-.25-13-.49-26-5.36-38.29a6.23,6.23,0,0,1-.27-3.92c2.7-8.32,5.58-16.58,8.41-24.86a10.54,10.54,0,0,0,1-2.79c.27-18.41,10.89-33.35,17.54-49.39,8-19.4,8-38.74,5.93-58.67-.48-4.61-1.74-9.13-2.47-13.72-1.66-10.52-5.57-19.7-14.29-26.49-2.46-1.91-4.08-4.89-6.37-7.74,2.54-2.37,4.57-4,6.32-6,3.27-3.6,6.81-3.89,10.62-1.11,12.62,9.21,27.29,10.42,41.92,9.22,12.36-1,25.13-2,36.15-9.19.74-.48,2.65.84,4.73,1.57a41.76,41.76,0,0,0,1.25-6.43c.93-22.56,2.81-45.16,2.12-67.67-.31-10.14-5.16-20.4-9.27-30-1.94-4.54-6.5-8.51-10.81-11.3-3.4-2.19-8.23-2.18-14.38-3.61-7-8.38-15.79-9.47-26.66-1.63-6.73,4.86-13.56,9.61-20.2,14.59-10.4,7.81-14,20.11-19.34,31-7.58,15.47-14,31.56-20.29,47.61-1.87,4.74-1.9,10.25-2.47,15.43-.61,5.57-1.08,11.17-1.22,16.77a128.79,128.79,0,0,0,.51,14.83c.72,7.89,1.78,15.75,2.67,23.63.78,6.88,1.65,13.75,2.22,20.65.27,3.28.52,6.77-.3,9.87-.58,2.22-3,4-4.56,5.92-2.17-1.79-5.45-3.17-6.28-5.45a48.89,48.89,0,0,1-2.32-13.66c-.86-14.89-1-29.84-2.23-44.69-.73-8.78-3.46-17.38-4.46-26.16s-2.42-17.81-1.07-26.32c4.13-25.87,13.29-50,28.4-71.69,6.06-8.71,11.08-18.15,16.68-27.19a14.46,14.46,0,0,0,.21-15.25,105.79,105.79,0,0,0-12.65-17c-3.33-3.78-6.31-7.15-7.49-12.47-1-4.66-4.35-8.88-6.94-13.11-1.4-2.28-3.79-4.24-1.23-7,2.86-3,5.48-.81,7.93.85,1.65,1.11,3.13,2.48,4.71,3.71,11.53,8.95,22.28,9.68,33.31.6,13.85-11.39,27.08-23.57,40.3-35.71,15.71-14.42,32.16-27.2,52.23-35.68,17.58-7.43,34.57-16.47,46.7-32.76,8.5-11.41,19.25-21.13,28.82-31.76,6.66-7.4,13-15.06,19.52-22.65a11.42,11.42,0,0,0,2.09-3.38c3.69-10.18,7-14.12,14.79-20.2,10.35-8,18.49-18.07,25.31-29.3s14.36-22.32,21.42-33.55c6.85-10.92,14.19-21.57,15.72-35a30.66,30.66,0,0,1,4.61-12q12.24-19.93,25.16-39.43c5.49-8.3,11.75-16.1,17.12-24.47,3-4.67,4.8-10.1,7.29-15.12,6.61-13.3,12.71-26.9,20.15-39.73,6.62-11.42,14.55-22.11,22.26-32.87,15.37-21.44,34-40,52.07-59.09,5-5.24,8.71-11.63,13.26-17.29,4.78-6,9.81-11.73,14.81-17.51,11.32-13.06,22.21-26.53,34.14-39,17-17.77,34.65-34.89,52.22-52.08a140.93,140.93,0,0,1,17.41-14.9c11.39-8,23.22-15.32,34.9-22.89,16.18-10.48,32.2-21.23,48.63-31.3,22.4-13.72,45.49-26.15,70.31-35.08,7.79-2.79,15.52-5.74,23.32-8.5,4.4-1.57,4.44-1.46,8.33,4.29-10.79,7.07-22.08,13.51-32.25,21.37-11.55,8.93-22.37,18.86-33,28.84-13.1,12.26-25.86,24.89-38.51,37.63a186.07,186.07,0,0,0-14.16,16.51c-7.56,9.66-15.2,19.29-22.18,29.37-13,18.76-26.32,37.37-38,56.92-10.38,17.31-18.94,35.74-28,53.84-5.32,10.66-9.8,21.75-15,32.44-2.62,5.33-6.73,9.83-6,16.57.31,2.74-1.12,5.9-2.4,8.56-10.14,21.12-12.56,43.91-15,66.75-.65,6.24-3.15,12.41-3,18.58.2,11.94-3.64,23.4-3.27,35.25.1,3.19,1.48,6.32,2,9.52a55.52,55.52,0,0,1,1,9.68c-.24,13.65-1.08,27.31-.86,41,.09,6.18,1.71,12.44,3.4,18.45,3.15,11.14,5.07,21.84-1,32.9-2.06,3.76-2,9.06-1.76,13.61.81,17.85,1.95,35.68,3.22,53.51.33,4.54,1.6,9,2.43,13.53.41,2.24,1.43,4.6,1.08,6.72-2.13,13.07-4.38,26.12-6.95,39.11-2.45,12.35-5.2,24.65-8.1,36.91-1.14,4.82-3.12,9.43-4.6,14.17q-2.59,8.25-5,16.56c-2.8,9.88-6.27,19.65-8,29.72-1.84,10.41-2,21.12-2.9,31.7-.24,2.76-.68,5.51-1.05,8.53-6.62-.58-9.15-4.12-8.73-8.77,1.09-11.8-1.45-23.62,2.05-35.52,3.31-11.26,4.22-23.22,6.27-34.85.67-3.83.09-6.76-2.84-9.91-2.45-2.62-3.22-6.81-5.08-11.11-3.28,3.78-2.48,7.35-1.18,10.56,4.81,11.91,1.41,22-4.18,33.11C2930,847,2911.75,867.08,2898,890.24c-6.43,10.86-13.05,21.61-19.7,32.34a15.32,15.32,0,0,1-4.41,5.08c-7.3,4.49-12.16,11-16.91,18-8.06,11.79-16.94,23-25.27,34.61-15.11,21-29.68,42.49-45.2,63.22-13.9,18.56-28.26,36.79-44.31,53.66-9.12,9.58-16.87,20.45-25.6,30.42q-27.28,31.13-55,61.9c-19.13,21.21-38.94,41.85-53.22,66.93-3.93,6.89-9.14,13.13-12.41,20.29a451.73,451.73,0,0,0-17.6,43.16c-2.6,7.71-2.35,16.37-3.42,24.61-.41,3.16-.89,6.31-1.4,9.92-5.44-1.24-6.23-4.39-6.63-8.27-.68-6.6-2.35-13.12-2.61-19.72a122,122,0,0,1,1.12-20.74c2.58-19.39,4.72-38.9,8.56-58.06,4.25-21.25,13-40.81,25.21-59,19.44-28.93,37.38-58.89,57.46-87.35,7.89-11.17,10.59-21.41,7.31-34.15-1-3.75-.5-7.92-.37-11.89.35-11.23-5.36-20-15.69-24.11-3.65-1.44-7.17-3.21-12.17-5.48-4.16,4.78-8.93,10.06-13.49,15.52-5.31,6.37-10.24,13-15.68,19.3-6.39,7.34-12.47,14.8-14.74,24.54-1.4,6-3.32,11.62.32,18.21,2.32,4.2,1.22,10.41,1.26,15.72.13,16.95,1.08,34.2-6.32,50-3.12,6.67-8.56,12.28-13.22,18.15-.8,1-3,.9-4.17,1.21-3.75-3.2-2.54-6.29-1.48-9.55,6.43-19.7,6.44-39.77,3.43-60-.68-4.59-3.44-6.62-8.69-9.17,1.81,5,3.08,8.61,4.49,12.55-2.69,3-5.3,6-8,8.84-14,14.89-24.07,32.46-34,50.11-.65,1.15-1.86,2.53-1.65,3.56,2.32,11.08-4.31,20.28-6.54,30.35-2.2,9.9-7.39,19.1-10.24,28.9-2.79,9.58-8,19-3.33,29.75,1.08,2.52-.53,6.45-1.49,9.54a63.91,63.91,0,0,0-2.49,29.58c.68,4.19,2.14,8.27,3.33,12.37.26.92.89,2.5,1.29,2.48,8.39-.42,7.17,7,9.92,11.45,3.28,5.27,7.81,9.76,11.82,14.56,2.43,2.91,7.41,5.6,3.71,9.87-4,4.58-6.77-.18-9.63-2.77-8-7.27-19.47-5.42-24.3,1.9-3.64,5.53-8.11,10.52-12,15.92a23.77,23.77,0,0,0-2.69,6.28c-1.76,5.15-2.28,10.36-6.09,15.22-3.07,3.9-3,10.71-3.27,16.27-.46,10.64-.36,21.31-.08,32,.33,12.61,14.07,20.66,24.84,14.4,10.32-6,20.45-12.39,30.21-19.25,3.62-2.53,6.12-6.75,8.83-10.43,2-2.65,3.22-5.82,5.16-8.5,11.33-15.57,23.3-30.71,34-46.69S2595,1345,2605,1328.54c.17-.28.21-.64.38-.92q13.5-20.89,27-41.79c.54-.82,1.1-2,1.89-2.24,12.1-4,17.91-15.55,27.21-22.88q24.26-19.1,48.69-38c10.39-8,23.24-7.74,35.27-8.63,6.18-.45,12.83,3,19,5.54,3.54,1.45,5.42,4.88,3.85,9.13a23.7,23.7,0,0,1-1.09,2.79c-7.66,14.86-8.32,30.09-4.33,46.31,3.94,16,1.52,32.33-.25,48.54-1.79,16.46-3.1,33-4.45,49.48-.12,1.46,1,3,1.42,4.15,5.62-3.82,10.94-7.68,16.49-11.14,4.5-2.81,9.31-5.11,13.94-7.7,11-6.16,19.16-15.2,25.39-26.07,10.19-17.79,18-36.57,19-57.19.67-13.21-.85-26.58-8.32-38.29-3.93-6.16-8-12.29-12.26-18.2-6.2-8.5-5.64-10.2,4.8-12.45,4.45-6.75,2.69-13-1-19.48-8.08-14-19-25.66-31.31-35.83-7.54-6.25-16.94-10.17-24.95-15.92-5.56-4-10.27-9.19-15.1-14.11-.91-.93-.86-3.11-.75-4.67.69-9.23,3.81-17.51,10.25-24.28a144.29,144.29,0,0,0,23.28-31.83c8.34-15.72,22-27.39,33-41.09,4-5,13.55-8.27,15.65-6,4,4.31,1,9.34.7,14.15-1.22,18.89-2.42,37.79-3,56.71-.11,3.66,3,7.31,4,11.12a276.22,276.22,0,0,0,15,42.1c4.84,10.92,8.86,22.22,12.92,33.46,9.59,26.52,19.05,53.13,34.15,77.12,8.46,13.43,18.19,26,27.3,39.06,2.47,3.53,4.39,7.53,7.26,10.7,6.58,7.27,13.58,14.16,20.43,21.18a3.89,3.89,0,0,0,1.64,1.12c9,2.14,13.82,10.54,21.65,14.46,1.51.76,3.7,3.11,3.4,4a8.41,8.41,0,0,1-4.23,4.7c-4,1.55-8.4,1.92-12.38,3.43-11.82,4.47-20.08,12.05-23.42,25-6.28,24.32-10.43,49-7.64,73.92,3.83,34.21,19.91,61.62,51.13,78.52,6.43,3.48,12.92,6.87,19.59,9.83,3.36,1.49,6.61,3,11,.24,2.29-1.45,7.24,1.31,11.77,2.35,2.94-4.12,7.08-4,12.36-1.67,15.14,6.79,30.53,6.58,46.64,2.41,10.83-2.81,21.69-5.51,32.44-8.67,6.65-2,13.24-4.14,19.8-6.4a6.3,6.3,0,0,0,3-2.51c7.62-11.92,18.28-22.08,20.56-37.08.83-5.51,3-10.84,4.89-16.14a25.7,25.7,0,0,1,3.91-6.91c2.77-3.58,5.79-7,8.88-10.3a66.56,66.56,0,0,1,5.6-4.9c4.06,2.86,5.21,5.76,2.76,9-10.46,13.91-8.81,30.94-11.8,46.68-2.9,15.27-4.12,30.87-5.75,46.36-.45,4.22-.79,9,.64,12.77,5.84,15.53,10.76,31.77,19.15,45.88,7.86,13.22,19.54,24.2,29.8,35.93,5.91,6.75,12.73,12.72,18.49,19.59,12.61,15,24.92,30.29,37.09,45.66a152.56,152.56,0,0,1,10.93,16.54,6.36,6.36,0,0,1,0,5.28c-.45.86-3.29,1.41-4.43.84-4.73-2.34-9.6-4.68-13.72-7.91-6.53-5.12-12.39-11.08-18.73-16.46-7.07-6-14.2-12.14-24.62-10.19-11-5.59-22.78-3.32-34.31-3a146.2,146.2,0,0,0-16.82,1.65c-1.79.27-3.36,1.85-5.1,2.68-2.62,1.27-5.21,3-8,3.49-16.34,2.81-26.56,12.64-32.61,27.53-.87,2.15-1.29,4.7-2.73,6.32s-4.1,2.65-6.21,3.92c-1-2.24-3.17-4.6-2.95-6.71a61,61,0,0,1,11.56-30.34c4.92-6.6,10-13.06,15.55-20.26l-5.8-1.39c0-3.57-.86-7.73.19-11.32,1.88-6.35.47-11.86-2.56-17.12-4-6.92-8.06-13.83-12.69-20.31-6.66-9.31-16.92-13.72-26.92-18.29a125,125,0,0,0-48.18-11.48c-14.09-.41-28.28,2.7-42.42,4.36a48.23,48.23,0,0,0-8.76,1.85c-4.74,1.5-8.26.54-11.2-3.72-1.23-1.78-3.71-2.69-6.3-3.3,4.18,9.66,15.49,16.29,10,29.27a27.38,27.38,0,0,1-4.54-1.3c-11-5.28-22.26-4.23-33.63-2.06a148.93,148.93,0,0,0-43.66,16c-8.68,4.74-16.44,11.19-24.61,16.87-3.28,12.77-15.87,15-24.88,20-20.88,11.57-38.54,27.2-57.26,41.49-14.81,11.32-29,23.48-39.19,39.45-.83,1.29-2.47,2.06-4.08,3.34l-4.26-7.05c-3.63,2.26-1.82,4.84-1,7.15,2,5.63,4.37,11.13,6.12,16.83,2.26,7.34,1.42,7.39-5.33,10.68-14.37,7-28.36,15-36.87,29.24q-12.49,20.93-23.65,42.63c-3.3,6.41-4.77,13.74-7.42,20.52-12.35,31.52-16.38,64.78-21.46,97.92-2.9,18.9-4.62,37.62-3,56.61,2.23,25.88,6.42,51.37,15.07,76,2.18,6.23,3.4,12.81,4.94,19.26,2.72,11.37,5.75,22.84,13.61,31.69,6.31,7.11,12.7,14.09,18.79,21.41,3.85,4.64,9.85,7.5,15.66,11.71-7.93,1.3-11.33-4.83-17.15-7.58-6.22,4.36-10.75,1.85-14.8-4.51-2.46-3.85-6.4-6.74-9.66-10.08-22.32-22.92-40.07-49-49.69-79.54-7.17-22.75-11.87-46.33-16.89-69.71-4.24-19.79-7.07-39.89-11.09-59.73a123.12,123.12,0,0,1-.08-49.31c4.33-21.88,10.35-43.16,16.6-64.52,4.05-13.87,10.59-26.28,17-38.78,7.61-14.89,13.19-30.43,19-46,9.93-26.45,11.41-53.81,10.53-81.53-.12-3.85-.14-7.22,3.9-10.1,7.65,2.69,9.41,10,11.66,16.69,1.16,3.44,1.51,7.14,2.2,10.73,2.22,11.4,11.23,19.22,22.38,17.73a37.54,37.54,0,0,0,17.22-6.77c13.4-10.27,26-21.53,38.9-32.49a37.31,37.31,0,0,0,5.29-5.92c6.6-8.68,12.71-17.78,19.77-26.07,9.69-11.39,20.15-22.12,30.13-33.27,3.91-4.37,8.15-8.42,8.8-15.12.26-2.68,4.64-4.72,5.94-7.59,2.83-6.31,4.94-12.94,7.23-19.48,1-2.94,1.77-6,2.61-8.85,15.39,3,15.74,3.39,19,19.43,3.25-1.51,3.25-1.51,2.78-12.83,11.57-4.06,22.84-9.39,35.92-8.86,12.88.52,25.79,0,38.69.18,3.87.06,7.74.94,12.6,1.57-1.33-2.07-2-4.31-3.28-4.87-7.84-3.29-15.17-6.77-24.71-5.38a90,90,0,0,1-31.66-1.47c-10.81-2.39-20,.7-30.85,4.06a58.46,58.46,0,0,1-4.17-6.94c-2.78-6.44-6.79-9.32-13.54-8.76-4,.32-7.86,1.29-11.81,1.69-7.09.73-7.38.38-8.64-8.76,17.42-8.27,31-21.06,39.27-38.77,2.18-4.63,3.84-10.18,3.54-15.17-.55-9.17-2.54-18.28-4.31-27.34a177.33,177.33,0,0,0-5.06-20.22c-2.23-6.87-4.66-13.86-13.93-14.47-1.43-.09-2.66-3.13-4.38-5.3-7.52,3.75-12.54,10.51-18,16.48-10.54,11.47-19.93,23.8-26.16,38.33-3.39,7.9-7.5,15.48-11.26,23.22-3.47,7.14-6.06,9.13-9.45,7.16s-4.95-9.7-2-14.21c6.19-9.35,9.35-20,11.06-30.61,1.59-10,.73-20.42.1-30.61-.35-5.56-13.45-14.39-18.46-12.7-2.69.91-4.67,4-7.47,6.5-7.62-1.71-16,1.62-21.09,9.88a45.79,45.79,0,0,0-5.91,13.65c-4.22,19.12-8.08,38.31-5.48,58.12.92,7-.65,10.39-4.4,10.61-6.92.41-5.65-5.74-6.37-9.31-1.93-9.73-2.89-19.65-4.46-29.46a29.93,29.93,0,0,0-2.46-7.55c-3.71-8.17-8.59-9.59-16.64-6.36-16.39,6.57-24.89,20.61-32.67,34.83-5.51,10.06-11.62,20.37-11.15,32.65.12,3.16.49,6.32.92,9.46.22,1.6,1.22,3.16,1.19,4.73-.3,14.83-1.54,29.69-1,44.48.73,18.57,8,34.82,21.13,48.25,2.32,2.38,4.82,4.6,7.2,6.92,5.25,5.09,4.42,10.08-2.62,11.29s-12.14,5-16.91,9.73c-.46.47-1.4.73-1.52,1.23-2.64,10.81-12.24,10.9-20.3,12.94-22.65,5.73-41.15,18.06-57.09,34.8-6.65,7-13.61,13.67-20.7,20.2-1.41,1.3-4.56,2.28-6,1.56a6.85,6.85,0,0,1-3-5.64c.43-3.53,2-7,3.34-10.34,6.34-15.72,17.65-28,28.32-40.72,11.33-13.48,23.3-26.49,33.76-40.61,6.41-8.65,12.45-18.25,14-29.37,2-14.38-3.37-25.77-16.08-33.9a11.71,11.71,0,0,0-1.46-14.31c-3.21-3.53-7.71-5.9-12.6-9.49a52.64,52.64,0,0,1,3.42-7.21,43.31,43.31,0,0,1,5.8-6.84,41.14,41.14,0,0,0,12-24.6c1.38-10.86,4.11-21.71,4-32.55-.1-11.86-2.08-23.85-7.33-34.89-1.71-3.6-3.77-7.11-4.89-10.9-.83-2.82-.4-6-.61-10.68,8.56,3.9,16.37,3.4,21.73,11.08,3.57,5.12,10.69,6.29,17.35,3.37,9.12-4,18.15-8.27,27.51-11.63,6.92-2.48,10.83-7.13,13.68-13.48,1.89-4.24,4.5-8.15,6.64-12.29,7.64-14.78,10.09-30.86,11.15-47.16.79-12.22.68-24.5,1.34-36.74.12-2.38,1.34-5.7,3.13-6.75,2-1.18,5.25-.27,8.6-.27.73,13.21,1.31,25.43,2.15,37.63.25,3.62,1.34,7.16,1.81,10.77.84,6.57,1.2,13.21,2.3,19.73,2.42,14.29,5.07,16.06,17.17,16.66,1.48.07,2.92.88,4.74,1.47.68-1.56,1.8-3,1.9-4.54.81-13.23,1.54-26.48,2.1-39.72.59-13.61,2.27-27.35,1.05-40.81-1.11-12.31-4.84-24.52-8.68-36.36-1.76-5.42-6.67-9.79-10-14.75s-6.41-10-9.79-15.38c-4.87,1.13-9.5,1.72-13.75,3.33-4,1.5-8.25,3.37-11.11,6.33-7.36,7.63-13.73,16.22-21,23.94-14.47,15.35-26,32.77-37,50.66-11.11,18.11-22.8,35.87-33.88,54-6.93,11.34-13.46,22.93-19.7,34.66-5.21,9.79-4.63,20.54-3.65,31.2.63,6.82,1.62,13.63,1.83,20.47.07,2.41-1.31,5.15-2.73,7.27a85.63,85.63,0,0,1-7.6,9.23c-7.48,8.36-9.22,17.52-6.61,28.65,2.79,11.86,3.57,24.19,5.18,36.32,1,7.82-2.1,14.38-6.79,20.22-10.28,12.81-18.53,26.71-23.87,42.31-1.64,4.81-3.3,9.3.12,14.21.95,1.36.76,5-.34,6-1.71,1.54-4.88,2.75-7,2.27-6.3-1.41-10.24-7.76-10.8-14.7-1-13,4.36-24.77,7-37,2.55-11.64,6.11-23.06,9-34.65,2.45-10-7.5-21.13-18.69-20.82-6.92.19-14.06.28-20.64,2.08-5.19,1.42-10,4.93-14.42,8.31-8.39,6.48-16.42,13.45-24.46,20.38-12.37,10.65-17.27,24.42-14.64,40.25.93,5.6-.35,9.45-3.08,13.82-6.49,10.38-13.1,20.91-13,33.71,0,7.6.34,15.37,1.94,22.75,4.22,19.51,3.37,39,1.15,58.52-.43,3.75-1.71,7-5.51,7s-5.49-3.19-5.79-6.88c-1.36-16.2-3.25-32.39-3.89-48.62-.47-11.85-2.12-22.4-13.23-29.28-4.13-2.55-4.47-6.5-1.24-10.24,9-10.35,11.43-23.81,17.29-35.65a2.22,2.22,0,0,0,.31-.94c-1-16.51,9.17-30.44,10.41-46.65s6.4-32.06,7.24-48.21c1.36-26.5-2.78-52.4-15.82-76.14-3.51-6.39-7.86-12.33-11.15-18.82s-2.88-7-.4-14c-6.27,1.95-8,7.49-9.52,12.13-4.43,13.91-8.5,28-11.59,42.27-1.14,5.26-.37,10.79-2.72,16.21-3.32,7.71-5.66,8.85-11.41,2.64s-10.61-12.79-15.94-19.16c-5.05-6-10.19-12-16-18.85-2.11,6.83,3.57,8.7,4.86,13.84-8.84,12.23-5.77,26.52-1.59,40.12,2.87,9.35,8.67,17.79,13.14,26.64,3,5.92,6.45,11.66,8.82,17.82,6.16,16,17.61,28.9,25,44.1,3.19,6.53,6.4,13.07,9.09,19.82.64,1.62-.2,4.53-1.39,6-6.31,8.08-13,15.91-19.45,23.84-1.26,1.54-2.13,3.84-3.73,4.57-2.18,1-4.89.79-7.37,1.11-.21-2.42-1.29-5.23-.43-7.17,1.88-4.21,4.95-7.88,7.18-12a87.68,87.68,0,0,0,6.43-13.45c2.59-7.57-.93-12-8.9-12.72-14.08-1.26-25.49,4.58-34.93,14a112.42,112.42,0,0,0-16.29,21.15c-2.61,4.31-3.14,10-3.82,15.25-.22,1.67,1.79,4,3.36,5.43,2.46,2.18,5.64,3.55,8.09,5.74,2,1.81,4.75,4.26,4.86,6.54.2,4.32-4.15,4.14-7.31,5-4.43,1.28-8.78,2.88-13.09,4.52-11.56,4.42-19,13.63-26.88,22.56-8.71,9.84-15.19,20.9-21.12,32.44-2.21,4.31-4.93,8.33-10.57,7.25-3.63-.69-4.67-6.3-.95-13.33a292.23,292.23,0,0,1,19.08-31.31c7.34-10.42,15-20.8,26.89-27l-.93-2-11,1.92a5.54,5.54,0,0,1-1.62-.8c-10.06-9.59-10.3-9.95-3.43-21.84,7.64-13.22,15.12-26.57,20.14-41a63,63,0,0,0,3.23-21.44,336.41,336.41,0,0,0-2.89-39.75c-2.91-21.13-11.93-39.2-29.16-52.68-5.91-4.62-11.17-10.08-17.79-16.13-.82,8.75-1.25,15.57,2.42,22.49a28.79,28.79,0,0,1,2.89,13.36c-.18,13.93-1.1,27.85-1.63,41.77-.17,4.61-.12,9.23.05,13.83.12,3.36-.51,6-4.33,6.63a5.57,5.57,0,0,1-6.71-4.57,20.28,20.28,0,0,1,0-8.84c4-16.39,3.38-33,3.29-49.68,0-2,0-4.34-1.07-5.81-6.25-8.82-5.57-18.89-5.45-28.8.06-5-.42-9.23-5.41-11.79a4.84,4.84,0,0,1-2.48-2.93c-.31-2-.65-5,.47-6.1s4.55-1.68,6.07-.84c4.62,2.54,8.64,6.17,13.2,8.85,11,6.45,22.56,11.13,35.78,10.23,5-.34,8.79-1.77,12.45-7.71l-9.26,2.11c.28-2.57.12-4.82.79-6.8,3.67-10.89.27-20.89-3.78-30.75-3.56-8.66-7.42-10.59-16.51-7.47-6.55,2.25-13.32,4.76-18.91,8.69-11.28,7.94-22.49,6.87-33.88,1.48-7.79-3.68-15.17-8.22-22.75-12.36-5.18-2.82-10.28-4.69-15.67-.09-1.29,1.1-3.58,1.29-5.44,1.41-9.28.61-16.22,6.18-23.22,9.3,1.19,4.17,2.28,6.88,2.69,9.68.55,3.78-1.72,7.88,1.83,11.38.73.71.06,3.21-.44,4.73-6.25,19.42-2.27,38,5.13,56,2.37,5.79,6,11.09,9.12,16.52,10,17.21,26.57,26.5,43.3,35.59,4.65,2.52,8.84,6,13.67,8.09,6.92,2.94,4.8,11,9.45,15l-6.53,12.54c-14.06-9.35-26.8-18-39.71-26.35-6.07-3.93-12-8.27-19.74-8.78-5.76-.37-9.37,1.6-11.87,6.87-5.17,10.93-7.86,22.5-10.49,34.22a36.52,36.52,0,0,0,2.58,24.23c2.3,4.94,5.85,9.3,9.68,15.2-.06.13-.85,2.09-1.81,4.49,1.52,0,2.67.35,3.36-.06,8.81-5.26,17.17-11.7,27.85-12.57,6.85-.56,13.79,0,20.66-.38,3.6-.18,7.12-1.43,10.72-1.85s7.77-1.13,8.76,4c.78,4-3.58,9.24-8,9.81-2.93.37-6-.25-8.85.46-11.72,3-22.86,7.86-31.83,15.82-9.88,8.76-19.64,17.94-25.81,30.1a36.73,36.73,0,0,1-6.88,9.76c-20.74,20-34.05,44.95-46.91,70.14-5.82,11.39-10.63,23.31-15.6,35.11-1.65,3.93-3,7.62-8.22,6.65-3.26-.6-7.33-7-6.67-11.07,1-5.89,2.77-11.67,3.54-17.58,2.66-20.41,10.1-39.17,19.62-57.16,4.81-9.09,10.46-17.74,15.6-26.66a45.79,45.79,0,0,0,5.53-32.69,31.47,31.47,0,0,1-.51-5c-.37-10.54-4.56-19-12.64-26-10-8.71-19.33-18.19-28.92-27.38-3.84-3.67-7.92-7.17-11.29-11.24a140.5,140.5,0,0,1-12.71-17.44c-2.74-4.6.45-8.55,5.89-8.28a5.06,5.06,0,0,1,2,.26c11.16,5.64,22.73,2.6,34.2,1.72,1.66-.13,3.47,0,4.92-.61,14.78-6.43,17.39-10.18,10.24-24.9-5.79-11.92-16.32-20.64-34.67-15.88-8,2.07-15.89,4.65-23.66,7.49-2.61,1-6.71,3.51-6.62,5.14.37,6.89-5.11,8.75-8.78,12.21-18.89,17.75-29.85,39.32-32.81,65.26-1,8.59.53,16.47,2.71,24.4,4,14.78,8.58,29.46,18.68,41.48,4,4.8,9,8.83,13.31,13.38a34.48,34.48,0,0,1,6,7.74c.88,1.73,1.08,5.3,0,6.16-1.66,1.36-5,2.12-6.94,1.39a41.84,41.84,0,0,1-11-6.25,50.37,50.37,0,0,0-30.35-10.93c-7-.17-12.59,2.74-16.91,8.76-13.86,19.28-21.18,41.27-26.83,63.92-1.18,4.73-.13,10-.57,14.94a129.71,129.71,0,0,1-2.44,16.55c-.33,1.49-2.65,3.48-4.09,3.51a5.79,5.79,0,0,1-4.42-3.23,97,97,0,0,1-2.65-12.63c-2.72-15,1-29.66,2.49-44.44.93-9.49,1.24-19,2-28.55.18-2.14,1.31-4.19,2.4-7.51-4.42-.51-8.68-.59-12.69-1.61-2.24-.57-5.28-2.37-5.76-4.19s1.52-4.65,3.15-6.33a30.59,30.59,0,0,1,7.31-5.15c16.81-9.31,21.12-25.82,26.57-44-2.61,1-3.41,1.06-3.93,1.49a24.66,24.66,0,0,0-2.38,2.82c-7.29-7.67-16.37-10.45-26.72-11-4.25-.21-8.31-3.54-12.54-5.22-2.67-1.05-5.76-1.24-8.2-2.63-2-1.16-3.37-3.51-5-5.34,1.94-1.5,3.76-4.05,5.84-4.29,4.58-.53,9.29.07,14,.28,6.71.31,12.36-1.75,16.72-7.07,10.2-12.47,15.52-26.86,17.09-42.78.23-2.27.1-4.89,1.18-6.73,6.12-10.37,1.51-20-1.93-29.58-1.67-4.64-6.6-4.48-10.37-2.81a78.25,78.25,0,0,0-13.66,8c-10,7.12-11.37,6.77-15.92-5.91,13.82-10.37,21.11-26.25,31.24-40,3.44-4.66,3.08-9,2.69-15.15-11.88,3.64-22.47-.16-33.41-2.56-9.91-2.17-20.11-3.81-30.53-1.92-4.84.88-10,.11-15,.15-11.32.08-22.57.66-33.39,4.51a16.6,16.6,0,0,1-3.76,1.25c-4,.36-6.41-1.72-7-5.51-.51-3.34,1-5.19,4.49-6.56,11.18-4.4,23.17-4.24,34.62-7,7.08-1.69,14.49-2.84,21-5.8,22.66-10.27,46.79-14.56,71-18.61,6.43-1.08,11-4.12,11.52-10a118.22,118.22,0,0,0,.15-23.64c-1.11-10.43-8.56-17.7-15.09-25.15-2.82-3.22-6.65-5.53-9.68-8.59a56.23,56.23,0,0,1-5.21-6.84c1-1.8,1.16-2.71,1.63-2.9,15.37-6,16.87-19.12,16.48-32.91-.24-8.52-1.46-17-1.72-25.54-.12-3.85,1.34-7.73,1.55-11.63a110.88,110.88,0,0,0-.24-13.76A91.78,91.78,0,0,0,1963,1259Zm715.15-186.33c3.11-4.22,5.66-7.19,7.66-10.49,8-13.34,16.44-26.54,21-41.64,2.17-7.22,6-12.11,14.15-13.16a12.55,12.55,0,0,0,7.42-4.26c11.43-14.22,22.73-28.55,33.69-43.13,8.79-11.68,17-23.77,25.55-35.63,12-16.68,24.58-33,36.09-50.07,10.23-15.14,19.66-30.84,28.88-46.63,18.23-31.2,37.51-61.81,52.89-94.61,12.37-26.37,16.34-53.66,9.23-82.23-1.2-4.83-2.21-9.71-3-14.61-1.76-10.47-2.87-21.06-5.08-31.42-5.67-26.52-5.49-52.75,2.46-78.81.86-2.81,2.51-6.45,1.47-8.57-2.61-5.34-.64-8.67,2.72-12.39,1.23-1.35,1.73-3.61,2-5.53a201.66,201.66,0,0,1,13.4-49.89c2.09-5,3.5-10.32,5.58-16.57-8.22,7.86-15.67,14.39-22.44,21.57-12.78,13.54-24.08,28.32-34.94,43.44-4.64,6.47-9.82,12.58-14.15,19.24-2.87,4.42-4.54,9.61-7,14.33-3,5.88-6.33,11.63-9.51,17.44-3,5.46-8,10.14-7.19,17.1,1.05,8.63-9.73,8.5-11,15.32a15.41,15.41,0,0,1-1,2.81c-4.53,11.07-8.58,22.37-13.71,33.16-9.38,19.71-14.15,40.58-17.78,61.92-2.95,17.35-6.78,34.53-6.78,52.27,0,3.59-1.55,7.15-1.93,10.77-1.09,10.2-2.87,20.46-2.69,30.66.4,22.21,2.09,44.4,2.77,66.62.4,13,.58,25.88,5.65,38.19a45.43,45.43,0,0,1,3.47,13.47,94.36,94.36,0,0,1-.74,17.68c-.16,1.39-2.55,3.54-4,3.61-5.85.27-9,4.43-11.85,8.26-7.22,9.55-13.78,19.61-20.86,29.27A237.52,237.52,0,0,1,2743,969.68c-5.15,5.66-12.92,7.08-18.18,4.08-6.38-3.64-3.64-9.62-2.5-14.27,3.37-13.82.7-27.59-2.33-40.49-2.71-11.55-10.66-21.87-16.33-32.71a3.26,3.26,0,0,0-1.4-1.4c-12.74-5.67-22.26-15.35-31.67-25.2-1.09-1.14-3-1.46-4.32-2.41a20.46,20.46,0,0,1-4.46-3.86c-12.71-16.47-29.08-29.11-44.93-42.17-7.74-6.38-16.8-11.69-27.93-11.9,1.93,9.15,2.35,18,5.71,25.66,6.32,14.35,6.61,29.51,8.55,44.48.42,3.22.59,7-.71,9.81-3.09,6.6-3.7,13.36-3.58,20.42,0,2.27-.7,4.54-1.09,6.81-.94,5.51-2.32,11-2.74,16.55-.72,9.47,1.52,19.23-3.41,28.26-.88,1.61-.49,3.92-.68,5.91-1.06,10.86-2.17,21.72-3.15,32.59-.51,5.62-1.18,11.31,2.62,16.56V993.93c10.74-8.29,19.61-17.56,24.91-29.87,2.76-6.4,6.52-12.39,9.15-18.83,13.05-31.94,11.42-62.78-7.51-92.16-7.31-11.34-14.34-22.83-20.1-35.08-1.63-3.46-3.14-6.63.67-11a87,87,0,0,1,8.16,4.14,56.41,56.41,0,0,1,9.63,7.09C2629.31,832,2643,846,2656.81,859.9a8.65,8.65,0,0,1,.9,1.77c4.76,8.14,6.93,17.84,14.79,24.15,1,.8.86,3.08,1.12,4.7,1.71,10.44,3.07,21,5.16,31.32,1.39,6.89,2.45,13.48,1.12,20.63-1.07,5.77-.09,11.9-.21,17.87-.05,2.87.41,6.3-1,8.49-9,14.55-7.82,30.83-7.13,46.51C2672.43,1033.83,2675.71,1052.21,2678.16,1072.67Zm-677.86,385.4c-1.91,9-3.74,16.71-5.06,24.47-.46,2.71,1.24,5.94.42,8.42-4.45,13.33-.06,24.56,7,35.6,7.84,12.19,22.25,14,32.72,3.69,12.76-12.52,28.38-19.66,45.74-22.49,12.83-2.1,22.24-7.81,27.82-19.72,3-6.3,8.47-25.83,8.78-33.87.26-6.91.84-13.93-.08-20.72s1-10.71,7.6-12.8c-5.18-3.74-9.08-1.32-13,1.44-4.56,3.19-9.2,6.25-14.6,9.9.63,5-3.26,8.49-7.57,11.77-2.91,2.2-5.63,4.67-8.57,6.81-12.6,9.17-25.49,18-37.81,27.5-8.33,6.45-17.34,12.3-23.06,21.77-1.21,2-5.14,3.46-7.69,3.3-3.67-.23-4.33-4.08-3.71-7,2.11-9.92-1.75-20.95,6.09-29.52-4.67-8.21-11-12.63-20.43-12.29Zm716.82-641c0-12.81,0-24.32,0-35.83a69.93,69.93,0,0,1,.55-9.93c.4-2.76,1.74-5.38,2.11-8.13.81-6,5.53-10.45,3.06-18-2.37-7.29-.7-16.17.29-24.22,1.36-11,3.77-21.88,6.08-34.84-2.49,2.25-3.41,3-4.3,3.87-11.31,10.64-21.38,22.6-34.81,31a67.75,67.75,0,0,0-19.53,18.11,30.14,30.14,0,0,1-9.59,8.56,27,27,0,0,0-11.72,12.78l9.64,9.15c-2.21,6.43-1.3,7.85,3.63,13.55,8.36,9.66,20.94,13.17,30.18,21.88C2698.87,810.78,2708.41,813,2717.12,817.09ZM2577,904.52c2.2-3.5,4-5.07,4.12-6.75.71-13.38,1.11-26.78,1.51-40.18a20.28,20.28,0,0,0-2.22-.35c-.79,2.28-1.59,4.61-2.66,7.69-9-5-17.09-2.81-24.88,1.4-4.06,2.19-7.49,5.74-11.71,7.35s-9.29,1.68-14,2.43c9.35,3.2,19.31,3.52,28.1,6.9C2564.36,886.48,2573.29,891.82,2577,904.52Zm85.63,82.4c-7.28,9.35-14.86,18.07-17.56,27.57l21.05,18.5C2664.94,1017.25,2663.79,1002.09,2662.64,986.92Zm88,282.54V1235l-21.37,2.34Zm41.25,136.91c-2.22,6.59,4.15,9,5.49,14.86l11.79-14.86Z"/><path d="M1282.17,1398.69c-.65-14.08-3.59-27.69-9.82-40.3-5.92-12-5.26-22.13,3.88-32.63,5.07-5.82,7.39-14,11.19-21,1.15-2.11,3-5.08,4.78-5.26s4.3,2.29,5.74,4.18c3.39,4.47,6.32,9.28,9.62,14.22l-4.88,6c3.12,11.21,6.18,22.94,17.54,29.49,5,2.9,2.46,7.81,4.82,12.26.85-1.39,1.78-2.22,1.86-3.14,1.41-16.21,3-32.41,3.89-48.65.33-5.83,0-12.08-1.81-17.53a23.5,23.5,0,0,0-8.81-11.38c-6.86-4.51-14.61-7.71-22.1-11.21-9.86-4.6-10.63-7.29-3.32-15.13,10.19-10.93,21-21.3,30.77-32.61,6.22-7.21,11.28-15.5,16.27-23.67,2.5-4.11,5.43-4.9,8.79-2.54,11.63,8.19,23.19,16.51,34.39,25.28,4.25,3.33,3,8.6,1,12.77-2.51,5.05-5.9,9.25-12.15,10.72-8.31,2-9.67,4-9.79,12.39-.12,8.64.08,17.28.13,25.92.05,8.85-1.18,17.25-8.11,23.74-1.2,1.13-2,2.72-3.11,3.89-13.81,14-17.51,31.39-17.51,51.38,9.32-5.22,19-4.09,28.65-4.23,3.91-.06,7.83.57,11.19-2.81,1.27-1.29,5-2,6.29-1.1,7.1,5.2,15.18,3.51,23,3.71l1.2,5.34c.88-.74,2-1.21,2.12-1.83,1.25-9.18,2.78-18.34,3.42-27.56,1.18-16.89,1.81-33.81,2.68-50.71a12.79,12.79,0,0,1,.43-4c6.51-16.25,2.54-32.93,1-49.21-.62-6.34-4-12.82-4-19.74,0-2-.71-4.12-.23-6,4.37-16.83-5.91-31-8.43-46.49-.09-.57-.81-1-1.49-1.84-7.22-1.12-14.27.46-20.91,3.76-24.67,12.26-49.42,24.36-73.79,37.19-5.61,3-10.33,8.13-14.63,13-18.4,21-37.23,41.67-51.11,66-6.71,11.78-11.86,24.44-17.69,36.72-.42.89-1.15,2.14-.84,2.79,3.85,7.89-1.25,14-3.86,20.63-4.17,10.55-2.09,21.7-3.07,32.55-.34,3.72-.91,7.42-1.42,11.5-6.52-1.37-8.13-4.75-8.6-9.57-.85-8.52-2.41-17-3.21-25.49s-2-17.26-1.24-25.74,3.42-16.87,5.61-25.2c3.71-14.18,9.64-27.3,16.56-40.36,15.61-29.45,38.3-52.57,62.76-74.14,9.36-8.26,20.83-14.16,31.48-20.92,12-7.65,24.36-14.88,36.32-22.66,3.73-2.42,6.89-3.48,11-1.41a11.48,11.48,0,0,0,8.34.72c-5.4-2.85-10.66-6.07-16.3-8.38-2.05-.84-5.32-.13-7.47,1a100.48,100.48,0,0,0-13.49,8.39c-5.91,4.32-9.85,3.73-11.71-3.21-2.31-8.63-4.86-17.53-4.93-26.33-.13-13.85,1.72-27.7,2.76-41.55.1-1.32.06-2.85.71-3.88.82-1.3,2.35-3.09,3.47-3a7.55,7.55,0,0,1,4.75,2.68c.94,1.13.86,3.11,1.21,4.71,4.33,19.38,13,36.15,29,48.57,5.85,4.55,12.54,5.27,18.69,2,18.5-9.86,30.31-25.64,36.52-45.38,5.36-17.06-2.84-34.35-18.13-43.08-8-4.56-15.25-10.56-22.17-16.68-8.55-7.57-11.85-8.08-20.34-.83-3.21,2.74-6.29,5.66-9.68,8.16-1.07.8-3.47,1.2-4.31.55a4.6,4.6,0,0,1-.93-4.31c2.08-4.4,4.19-8.92,7.13-12.75a154.14,154.14,0,0,1,31.92-31.07c2.41-1.74,5-3.73,7.79-4.38,9.62-2.22,16.2-8.9,23.11-15.05,9.54-8.49,11.26-8.18,14.56,3.36,13.24-4.2,26.38-8.75,39.75-12.49,16.59-4.65,33.48-8.2,50-13a314.25,314.25,0,0,0,38.46-13.55c12.4-5.46,24.24-12.29,35.94-19.16,11-6.46,16.11-17.19,18.8-29.26a28.57,28.57,0,0,1,1.24-3.48c7.4,1.34,10.84,5.65,10.47,12.86a53.15,53.15,0,0,1-6.56,23.7c-14.64,26.07-33.58,48-61.57,60-16.74,7.21-34.2,12.77-51.4,18.86-15.94,5.65-32,11-48,16.57-.82.28-1.41,1.22-2.53,2.23,3.84,3.81,7.54-.57,11.48.46,1.13,5.76,2.12,11.81,3.56,17.74.94,3.86,2.12,7.51,7.4,8.14,2.09.25,4.92,2.93,5.56,5.07,1.66,5.44,10.58,5.63,9,13,3.79.95,7.26,2.07,10,5.48a115.07,115.07,0,0,0,11,11.5c6.71,6.46,14.57,10.39,24.08,10.48,1.33,0,2.91-.23,3.93.38,2.12,1.28,4.79,2.71,5.61,4.73.57,1.39-1.12,5-2.65,5.7-11,4.78-14.07,15-17.92,24.81-1.18,3-3.35,5.66-5.35,9l-8.44-4.78-1.26,1.4,15.49,15.09c-9.55,6.86-18.74,13.44-27.89,20.07-1.62,1.17-3.54,2.22-4.59,3.81-3.92,5.92-9.19,7.61-16.16,7.36-9.18-.32-16.42,4.24-22.46,11.14a160,160,0,0,1-12.83,12.41c-9.9,9-15.18,19.8-13.62,33.55,1,8.89,1.45,17.85,2.21,26.77.36,4.29,1.09,8.55,1.28,12.84.18,4,.72,8.17-.37,11.83-3.6,12-3.1,24.22-3.09,36.56,0,15.93-1.5,31.85-2.27,47.78-.18,3.79,0,7.59,0,11.6l32.42-19,8.14,8.88,2-1.5c-2.4-4.09-5.1-8-7.14-12.31-2.83-5.93-5.28-12.06-7.66-18.19-1.32-3.39-1.8-7.12-3.27-10.43-5.72-12.85-6.29-26-4.77-39.9,2.31-21,10.17-40.5,15.18-60.75a33.73,33.73,0,0,1,5.72-11.56c1.17-1.59,4.42-1.64,6.73-2.39.65,2,2.12,4.17,1.83,6-3.77,23.87-6.15,47.63,1,71.38,4.8,15.84,8.82,31.91,13.63,47.75a298.42,298.42,0,0,0,11,31.48c5.36,12.45,11.83,24.41,18.35,37.67-1.62,2.18-3.3,5.46-5.87,7.76-14.42,12.89-17.36,29.08-14.13,47.16-.32.61-.49,1.55-.94,1.72-17.86,6.65-17.86,23.85-22.12,38.23-2.13,7.22.19,14.71,1.2,22.23,1.76,13,10.7,22.38,13.67,34.47,1.43,5.83.84,8.46-5.31,8.47-11.71,0-19.81,7.22-28.27,13.43-5.38,4-6.69,10.83-6.73,17.13,0,8.59.13,17.4,1.91,25.75,3.4,15.88,7.94,31.52,12.19,47.2.67,2.49,2.33,4.72,3.52,7.07,2.73,5.42,1,8.29-4.94,8.18-6.25-.11-12.49-.32-18.72-.58-13.08-.55-23.76,5.4-33.9,12.61-8.16,5.81-10.36,15.42-13.54,24-6.42,17.26-6.71,34.91-1.2,52.78a38.26,38.26,0,0,0,8.41,14.28c2.11,2.41,4.19,4.84,6.62,7.65-7.4,6.6-6.3,14-5.39,22.34,1.16,10.46.06,21.2-.36,31.81a101.68,101.68,0,0,1-1.79,16.83c-.82,3.87-.57,9.12-7,10-3.18-2.11-3.64-5-3.15-9.12,1.23-10.2,2-20.47,2.41-30.73.18-4.23-1.16-8.5-1.54-12.77-.9-10.24-1.64-20.5-2.55-32.11-13.28-6.14-24.68-18.49-41.53-19.62-17.38-1.17-34.82-6.43-52.15.25-14.56,5.62-29.3,10.85-43.53,17.2a97.88,97.88,0,0,0-20.95,13.29c-10.85,8.68-22.7,16.31-30.71,28.19-4.12,6.12-8.14,12.12-9.07,19.69-.69,5.63-4,8-10.74,6.93-.29-4.17-1.34-8.47-.71-12.5,1.34-8.51,2.33-17.41,5.72-25.17,3.89-8.93,8.67-18.62,15.83-24.72,12.76-10.87,22.92-24,35-35.32,14.22-13.24,20.14-29.82,23-48.46,3.63-24,1-46.93-9.64-68.83a59.23,59.23,0,0,1-2.44-5.47c-1.9-5.28-.4-7.73,4.9-7.93,10.58-.41,20.62-3.67,30.56-6.68,5.07-1.53,9.28-6,13.79-9.3,1.6-1.17,2.73-3.1,4.43-4,14.1-7.53,19.06-21.4,24.93-34.87,4.1-9.42,9.07-18.47,14-27.47,2.7-4.88,7.64-4.57,9.41.75,2,5.91,4.3,12.38,3.68,18.32-1.12,10.75,1.95,20.29,5.21,30,3.17,9.42,6.57,18.76,9.78,28.16,1.5,4.38,0,6.3-4.26,9.12-6.69,4.38-12.84,8.06-21.06,7.07-.78-.09-1.73.9-2.54,1.47-13.69,9.81-26.21,21-32.61,36.87-3,7.42-2.83,16.15-3.81,24.32a5.74,5.74,0,0,0,1.82,4.44c7.83,6.1,16.2,10.86,27.13,9.28-2-6.22-10.75-1-11.35-7.66,16.33-6.34,30.22-15.49,38.58-31.27,2.72-5.13,6.2-8.6,11-12.11,6.16-4.55,11.2-11.29,15.18-18,9.58-16.17,14-34.36,18.65-52.41a15,15,0,0,0-1.94-12.32c-5.75-9.5-5.47-9.25,4.77-15.25,4.48-2.62,8-6.81,11.29-9.67l15.16-1.54c-.86-4.82-1.54-8.66-2.35-13.23,2.16-.22,4.28-.3,6.35-.69,4.29-.8,8-2.07,10.51-6.46,4.51-7.92,9.78-15.41,14.73-23.08-3.72-10.47-8.35-13.24-18.69-10.56a8.39,8.39,0,0,0-4.91,4.2c-3.84,8.66-9.91,16.32-11.56,26-.31,1.85-1.66,3.52-2.28,4.76-6.37-1.71-12.46-2.85-18.17-5-6.64-2.51-12.25-.65-17.91,2.48-6.65,3.69-13.31,7.38-20,11a20,20,0,0,1-5.53,2.17,4.89,4.89,0,0,1-5.68-6,4,4,0,0,1,.85-1.79c11-11.55,5.91-25.91,6.39-39.15.16-4.2-4.45-8.48-4.65-12.82-.57-12.23-7.54-17.52-18.34-20-2-.46-3.6-2.47-6.22-4.37,5.47-7.39,13.46-9.26,20.26-12.85,4.66-2.46,9.73-4.26,14.09-7.16,11.26-7.49,18.43-18,20.76-31.43,1.18-6.79.64-13.28-4.2-18.72-5.33-.46-10.6-.62-15.78-1.43-10.64-1.67-19.51,3.12-28.19,7.83-2.89,1.57-4.53,5.58-6.49,8.64-2.51,3.93-4.55,8.16-7.22,12-1.2,1.71-3.91,4.08-5.11,3.68-2-.65-3.25-3.32-4.8-5.16-.41-.49-.74-1-2-2.86-1.59,2.25-3.54,3.93-4,6-.7,2.85-.37,6-.37,9,0,9.78,0,9.78,9.35,13,5.42,1.88,5.9,4.19,1.65,8.34-2.84,2.77-6.18,5.13-8.6,8.22-7.24,9.24-8.75,19.39-5.77,31,2.37,9.23,3.21,18.93,3.92,28.48.91,12.2,1,24.47,1.44,36.42-6.14,6.94-13.82,6.67-21.34,5a15.54,15.54,0,0,0-12.26,2.07,79.76,79.76,0,0,0-27.17,27c-3.91,6.27-6.61,13.6-14,17.39-1.84.93-2.48,4.48-3.38,6.94-2.8,7.66-2.46,16.56-9,22.72-3.74,16.15-9.62,32-7.95,48.93.37,3.76,2.43,7.35,4,11.85l-8.48,5.79c-2-3.57-3.92-6.6-5.55-9.75-.91-1.76-1.16-3.87-2.13-5.58-14.4-25.21-10.56-50.95-.26-75.78,6.17-14.89,15.61-28.48,24.13-42.31,7.49-12.15,15.56-24,23.79-35.64,2.78-3.95,6.62-7.26,10.39-10.36,2.71-2.23,6.11-3.63,10-5.86-4.77-3.77-7.9,1.48-12,.41-.15-9-4.22-16.86-10.17-23.65s-12.25-12.81-19.38-20.2c3.73-2.11,6-4,8.67-4.8,15.06-4.32,25.86-13,30.85-28.34,2-6.17,5.51-11.52,4.62-18.83-.45-3.72,3.71-8,5.77-12-1,4.26-2,8.49-3.45,14.91C1284.5,1407.65,1285,1403.4,1282.17,1398.69ZM1419.38,1415c2.9,13.33,11.62,22,20.72,32,6.58-8.17,12.29-15.24,17.93-22.23l-12.73-23.13-14.59,1.91C1426.77,1407,1428.29,1415.07,1419.38,1415Zm12.72,40.18-21.35-27.71c1.89,14.13-10.81,18.63-12.85,28.12l17.74,22.12Zm-20-349.7,1.52,2c10.07-7.94,20.33-15.64,30.1-23.94a11.37,11.37,0,0,0,2.87-14.5c-4.55-9-10.78-16.43-20.25-21.57C1429.65,1074.38,1428.32,1079.69,1412.09,1105.43Zm-.95,50.58c1.32,11,7.66,19.06,11.62,28.56,3.86-5,6.57-10.07,9.38-15.13,1.42-2.56,2.56-5.5,4.6-7.45,3.86-3.69,8.29-6.79,14.26-11.55-4,.24-6.85-.46-8.38.67-6.43,4.77-13.7,4-20.91,4.15C1418.49,1155.34,1415.28,1155.71,1411.14,1156Z"/><path d="M2030.19,1207.16c-2.38-2-5.43-3.34-6.18-5.5-.67-1.93.72-5.06,2-7.11,3.41-5.3,7.85-10,10.82-15.51,2.22-4.13,2.07-9.55,7-12.19a2.09,2.09,0,0,0,.92-1.64c-.88-12.67,2-26.31-8.21-36.74-5.06-5.18-10.9-9.58-16.27-14.46-2.42-2.19-4.56-4.7-7.35-7.62-2.46,1.85-5.38,2.93-6.37,4.95-6.24,12.79-14.37,24.81-16.84,39.21-.45,2.61-.24,5.32-.61,8-.65,4.6-3.66,7.59-6.94,6.82-4-.94-5-4-4.81-7.66.26-4.65.45-9.31,1.08-13.91,2-14.47,4-28.93,6.25-43.36.59-3.82,2-7.5,3.68-13.42l-7.63,6c-7.87-3-15.7-5.56-23.17-8.94-1.84-.84-3.21-4.09-3.61-6.43a41.09,41.09,0,0,1-.12-11c.55-5.49-2.52-7.87-7.05-9.23-9.07-2.72-19.18,1.21-23.45,8.92-1.8,3.24-2,5.91.63,9.07,5.92,7.16,11.59,14.55,17.09,22,4,5.4,7.3,11.17,5.53,18.47l-69.09-22.42c2.27-9.62,3.92-18.8-.46-27.71-1.32-2.67-2.42-5.81-4.55-7.65-8-6.83-16.08-13.6-24.67-19.64-6-4.22-12.07-8.09-16-14.58,2.14-5.65,6-5.27,10.64-4.07,3.08.81,7.07,2,9.49.7,5.07-2.62,10.63-3.82,14.5-9.79,6.25-9.68,7.36-19.76,6.48-30.26-1.51-17.92-6.67-34.54-20.79-47.06-3.71-3.29-8-4.54-14.06-4-.77,4-1.7,8-2.3,12.12-.41,2.75-.59,5.65-4.11,5.77-4.3.14-4.76-3.33-4.44-6.31.93-8.56,2.4-17.06,3.34-25.62.26-2.38.19-5.52-1.13-7.22-6.3-8.12-13-15.9-19.74-23.71-1-1.13-2.47-1.79-3.85-2.74-1.94,4.54-3.64,8.49-5.27,12.28-5.85-1.2-7.7-4.41-6.53-8.31,3.82-12.75-1.87-23.4-6.77-34.33-3.65-8.15-7.3-16.31-10.68-24.58-.65-1.58-.7-4.87.07-5.26,1.64-.85,4-.51,6-.33,12,1.07,17.67,10.06,23.92,18.69a32.13,32.13,0,0,0,11,9.8c12.75,6.38,26.11,11.51,38.84,17.91,10.34,5.2,20.18,11.41,30,17.48,1.26.78,2.43,4,1.83,5-1,1.59-3.62,3.42-5.22,3.15-6.61-1.11-12.81.13-20.69,1.3,2.61,2.64,4,4.32,5.64,5.66,6.51,5.28,11.11,11.52,15.14,19.2,5.58,10.66,13.19,20.89,25.63,25.3,7.43,2.63,13.31,7.41,18.5,13.1,5.88,6.45,5.42,9.21-1.82,14.49-1.06.77-2.78,1.84-2.74,2.71.39,9.37-9.64,14.92-9.07,24.3,11.44,2.7,16.11,1.22,21.6-7.23,5.25-8.08,10.1-16.42,15.4-24.47s11.21-15.66,16.3-23.82c2.75-4.42,4.49-9.51,6.44-14.39,1.65-4.1,3.2-7.39,8.7-4.71,1.55.76,4.39.26,6-.73,6.49-4,12.77-8.35,19-12.71,1.59-1.11,3.37-2.5,4.12-4.18,6.13-13.88,18.7-18.68,31.86-21,10-1.74,20.56-.75,30.86-.56,5.53.11,9.41,2.53,12.57,8,4.82,8.28,11.47,15.47,17.16,23.26,5,6.83,4.9,8.18-.61,15.37-3.17-2-6.63-3.88-9.63-6.28-10.94-8.75-22.37-5.59-34-1.88-4.6,1.47-1.68,5.87-3.39,8.31-14.88,2.92-28.89,7.6-39.18,19.11-7.48,8.36-14.53,17.2-14.81,29.48,0,2-2.39,4.5-4.3,5.93-2.6,2-5.79,3.1-7.91,4.17-.89,6-1.74,11.09-2.43,16.26-1.32,9.86-2.51,19.74-3.8,29.6-.79,6,1.55,10.63,6.45,13.56s9.93,1.43,14.17-1.44c14.76-10,26.47-22.35,28.67-41.09,1.24-10.5,5.41-19.86,10.43-28.89,1.32-2.38,4.06-3.92,5.9-6.07,1.58-1.84,2.56-4.22,4.24-5.93,1.3-1.3,3.41-2.83,4.91-2.61s3.22,2.24,4.08,3.87a7.21,7.21,0,0,1,.31,4.88c-2.28,8-4.44,16-7.34,23.77-4.83,13-10.36,25.66-15.19,38.62a25.42,25.42,0,0,0-1.19,10.84c1.24,13.5,1.71,27.15,10,39,7.19,10.27,10.86,22.89,20.82,31.34,2.25,1.91,4.39,4,6.76,5.7,8.28,6,16.88,11.68,24.89,18.05,4.2,3.33,8.23,3.73,13,2.51s9.66-2.45,14.53-3.41,8.69-.3,11.12,5.42c5,11.79,15.82,17.71,26.61,22.84,9.12,4.33,18,10.15,29.28,9.25,1.26-6.13,1.5-11.87-1.09-17.63-.92-2-1.72-4.66-1.27-6.73,3-13.48-2.22-26.29-3.33-39.39-1-11.43-11.05-17.78-20.09-23.45-2.4-1.51-6.54-.23-10.91-.23l-9.05,11.41c1.1,11.73-2.06,23.83-2.23,35.91-2.44.22-3.35.59-3.71.29-7.47-6.2-16-5-24.12-2.6-9.08,2.65-16.31-1.36-23.62-4.92-4-2-6-5.72-3.51-10.9a110.75,110.75,0,0,0,7.15-18.27c5.42-19.23,6.65-38.18-7.33-54.76-4.39-5.21-8-11.44-15.46-13.56-3.34-.94-5.65-4.63-4-8a9.21,9.21,0,0,1,6.9-4.31c9.52-.06,14-5.21,17.58-13.39C2103.85,993.4,2111,981,2117,968c9.94-21.67,12.47-44.45,9.34-68-.33-2.53,1.07-5.89,2.76-8,4.81-5.91,10.16-11.37,15.36-16.95a4.42,4.42,0,0,1,2.48-1.55c13.46-.76,21.06-11.81,31.46-17.91,1.7-1,3-2.82,4.74-3.55,4.42-1.84,8.13,1.07,7.58,5.8a33.74,33.74,0,0,1-1.59,6.78c-5.16,15.39-4.61,30.39.79,45.83,3.34,9.57,4.33,19.92.19,30-2.13,5.21-3.06,10.9-5.16,16.12-2.46,6.12-5.51,12-8.5,17.91-4.22,8.3-8.75,16.44-12.89,24.77-4,8-7.83,16.13-11.4,24.35a27.93,27.93,0,0,0-2.27,9.51c-.4,7.82.31,8.51,7.57,10.3.32.08.71,0,1,.13,11.29,5.68,19.91,2.12,28.28-6.6,4.19-4.36,10.68-6.57,16.23-9.54,21.63-11.56,43.5-22.67,64.89-34.65C2289,981,2310.09,969,2330.31,955.69c13.25-8.72,24.77-20,37.24-30,6.47-5.16,13.31-9.84,20-14.77a74.07,74.07,0,0,0,7.07-5.48c9.18-8.68,18.16-17.58,27.38-26.21,13.43-12.59,29.27-19,48.35-18.36,2,4.46,1.68,7.66-2.39,11.25-9.18,8.08-18.15,16.46-26.56,25.32-11.22,11.83-15.18,26.46-13.17,42.41,1.7,13.44.1,26.43-2.9,39.46a61.08,61.08,0,0,0-1.64,13.59c0,4.38-.27,8.15-5.21,9.37-3.5.87-5.91-2-6.76-7.74a10.64,10.64,0,0,0-.19-2c-5.16-13.57-3.57-26.54,2.56-39.49,1.6-3.37,1-7.82,1.23-11.77.7-10.22,1.32-20.44.68-31.19-1,1.76-2.75,3.53-2.76,5.3-.05,6.81-4.2,11.13-8.73,15-14.86,12.79-29.24,26.31-45.1,37.75a273.47,273.47,0,0,0-41.1,36.06c-10.89,11.76-20.84,24.14-20.72,41.65,0,5.6-2.39,6.9-7.56,6.77-6.57-.17-13.15,0-19.73.17-7,.17-14,.38-20.95.79-7.45.44-14.4,2.27-19.61,8.18-7.92,9-16,17.79-23.72,26.91-5.36,6.33-5.42,14.15-4.7,21.87,1.2,12.89,2.88,25.73,4,38.63.49,5.94.13,12,0,17.94-.22,7.54,3,11.78,10.38,13.08,5.22.91,10.46,2.19,15.71,2.29,3.76.07,7.62-1.37,11.32-2.51,1.44-.45,2.42-2.48,3.86-2.86,18.49-4.78,28.11-18.43,36.31-34.38,6.33-12.33,10.55-24.71,11.7-38.65.83-10.14,4.41-20.05,6.85-30.05.47-1.93.85-4.35,2.18-5.47,1.76-1.49,4.51-2.74,6.64-2.48,1.21.14,2.9,3.5,2.86,5.38-.06,3.25-1.13,6.53-2.07,9.71-5.52,18.74-6.1,38-5.57,57.28.08,2.62,2.19,5.13,3.12,7.78a42.81,42.81,0,0,1,1.89,7.28c.2,1.24-1,3-.43,3.84,4.88,7.15,1.32,15.31,3,22.88,3,13.75-1.44,27-4.11,40.69l-7.68,1.24c-3.14-15.4,3.07-30.61-1-46.26-4.64,2.82-7.72,6.86-10.75,10.92q-8.61,11.55-17.11,23.21c-6.44,8.84-13.79,17.2-19,26.75-4.71,8.71-10.14,17.94-6.53,29.06.78,2.38-.11,6.16-1.68,8.19-1.26,1.64-5.29,2.86-7,2-2.22-1.09-4.81-4.47-4.7-6.73.64-12.27-7.17-19.51-15.09-26.49a173.81,173.81,0,0,0-19.89-15c-11.34-7.41-24.38-10.67-37.56-12-5-.51-10.45,3.28-15.73,5-3.6,1.18-6.43,5.92-10.78,3.35-4.85-2.87-1.26-7.08-.87-10.78.59-5.67-1.21-10.39-6.09-13.7-13.65-9.27-27.37-18.44-40.88-27.9-4.34-3-8.38-2.61-13.19-1.53-13.95,3.14-23,12.71-31.62,23C2038.08,1197.62,2034.53,1201.94,2030.19,1207.16Z"/><path d="M1788.15,971.7c2.08,1.88,4,4,6.26,5.59,8.91,6,13.86,13.64,12.91,25-1.08,12.77,4.4,24,10.51,34.78,1.21,2.14,3.63,3.78,5.81,5.14,3.57,2.24,5.75,5.2,3.55,9-2.11,3.68-5.59,2.54-8.73.71-1.4-.81-3-1.35-5.14-2.33-1,1.89-2.22,3.43-2.67,5.17-3.59,13.63,5.42,27.36,19.07,30.62,18.4,4.4,37,8.51,54.85,14.6,20.72,7.07,40.82,16,61,24.46,4.7,2,8.74,5.56,13.08,8.4-.27.71-.53,1.43-.79,2.15-5.63-1-11.31-1.73-16.89-2.92-23.43-5-46.69-11-70.3-15-16.69-2.82-33.49-4.77-49.33-10.27-6.74,4.88-8.28,11.34-7.37,18.11,1.64,12.16,3.5,24.16,13,33.69,8.61,8.67,17.21,17.75,23.73,28,5.25,8.22,14.9,10.75,20.25,19.77l-5.13,7.07c-7.78-3.28-13-10.36-22.25-8.51-.4,1-.89,4.11-1.75,4.22-10.23,1.31-9.44,10.88-12.72,17.07-3,5.66-.34,11.89,2.16,17.15,5.7,12,11.87,23.82,18.36,35.42,3.73,6.67,4.87,12.89-.11,19.13a17.34,17.34,0,0,1-6.36,5.35c-11.68,4.8-23.54,9.13-35.28,13.78a46.4,46.4,0,0,0-7.88,4.17,20.38,20.38,0,0,1-25.46-2.49,12.11,12.11,0,0,1-3.19-6.8c-.68-6.73,1.2-13,3.89-19.28,6.1-14.2,9.51-29.07,8.52-44.65-.79-12.53-5.27-23.72-13.36-34.93a155.65,155.65,0,0,0-21.59,42.35,3.74,3.74,0,0,0-.39,1.92c3.79,12.88-1.71,24.94-2.94,37.39-1.2,12.18-.49,24.56-.56,36.86,0,5.67.43,11.37-.06,17-.19,2.07-2.5,3.94-3.84,5.9-1.27-1.7-3.29-3.25-3.69-5.13-1.34-6.51-2.77-13.12-3-19.73-.75-21.23-4.4-42.32-2.15-63.72,1-9.73-.22-19.68-.2-29.52,0-4.61.82-9.22.81-13.82,0-14.74-5.91-27.72-12.77-40.2,4.5-9.35,5.78-9.81,14.16-5.87a69.48,69.48,0,0,0,9.24,3.58c16.77,5.07,30-7.45,26.46-24.6-2.31-11.2-8.32-20.07-15.82-28.23-2.7-2.93-5.68-5.67-7.91-8.92-.87-1.27-.76-4.67.19-5.39a7.38,7.38,0,0,1,6.17-1c2.65,1.08,4.78,3.43,7.59,5.6,8.35-5.78,14.71,1.68,23.22,4.32l9.31-18.39c-2.9-.14-4.89-.88-5.91-.19-10.68,7.25-21.35,5-32,.16-4.82-2.17-9.29-5.56-15-2.57-14.37-3.57-26.6,5.49-39.38,6.71-1.75,2-3.23,5.13-4.5,5-13.79-.9-23,6.58-31.21,16.18a22.05,22.05,0,0,1-3.61,2.67c2.75,6.89,7.93,11.49,13.28,15.68a178.35,178.35,0,0,0,16.56,11c3.06,1.89,5,3.94,4.9,7.89-.36,12.2-.33,24.4-.72,36.6a23.14,23.14,0,0,1-2,8.44c-.47,1-2.92,1.95-4.21,1.68s-2.64-1.93-3.17-3.29-.24-3.27-.24-4.92c0-10.31.1-20.63-.15-30.93-.19-8.31-11.45-14.76-18.76-10.74-6.68,3.67-10.63,9.92-14,16.5-.29.56-.63,1.45-.39,1.87,4.27,7.63-1.22,14.54-2,21.7a96.65,96.65,0,0,0,.22,24.75,169,169,0,0,0,4.13,19.5c1.93,7.13,5,13.63,11.39,18.19,8.22,5.89,14.65,13,17.72,23.19,3.75,12.37,7.27,24.72,7.9,37.68.11,2.14-1,4.4-1.83,6.51-2.35,6.14-5,12.19-7.22,18.37-3.19,8.86-2.6,19-10,26.55-1.77,1.82-.7,6.4-.92,9.63-7.62,4-11,2.42-10.12-5.38.87-7.5,3-14.92,5.19-22.19,2.84-9.5,6.52-18.6,6.77-28.89.39-16-5.78-28.71-18.1-38-10-7.48-19.46-15-25.28-26.28-.22-.41-1.17-.44-3.38-1.21,1.22,3.9,1.49,7.32,3.2,9.71,3.11,4.33,2,7.85-.24,11.93-5.95,10.74-11.85,21.52-17.39,32.49-5.39,10.65-10.57,21.36-9,34.06.79,6.31-4.35,10.77-10.36,9-4.16-1.23-6.4.62-8.79,2.76a202.23,202.23,0,0,0-36.51,43.3c-2.47,3.94-5.2,7.72-7.59,11.71-12.8,21.29-22.77,43.61-22.65,69,.06,15.46,1.11,30.91,1.42,46.37,0,1.84-1.43,4.83-2.85,5.29-1.62.54-5-.57-5.81-2-1.93-3.39-3.64-7.31-3.95-11.14-1.86-22.85-4.93-45.76-4.5-68.6.7-36.61,11.59-69.93,38.69-96.49,10.45-10.24,20-21.42,30.11-32,7.12-7.39,8.27-17.3,11-26.29,8.9-29.6,14.63-60,19.64-90.45a67.07,67.07,0,0,0-1.8-30.65c-1.16-3.83-1.8-6.95,1.34-10,.88-.87,1.84-2.45,1.65-3.51-1.72-9.55,3.84-17.9,4.28-27.07,0-1,.38-2,.32-2.92-.6-8.62-3.11-11.09-11.86-11.22-16-.23-30.93,4.57-45.38,10.7-10.67,4.53-20.66,10.7-31.39,15.07-14.66,6-25.43,16.82-36.71,27.15-2.28,2.1-4.63,4.11-8.63,7.63.41-11.4,5-18.42,11-23.81,7.85-7.1,16.71-13.13,25.46-19.15,9.29-6.38,18.83-12.4,28.48-18.22,9.09-5.48,18.55-10.33,27.67-15.75,6-3.57,11.64-7.7,17.48-11.51,9.16-6,21.44-6.85,27.93-17.17,6.35,1.52,7.05-4.23,7.73-7.44,2.14-10.11,7.66-18.42,12.26-27.32,3-5.81,4.27-12.49,6.47-18.73,3.62-10.28,7.35-20.52,11.26-31.38,4.84-3.38,13.27-3.82,15.35-14.1-6.43,3.4-11.66,5.93-16.65,8.87-14,8.22-27.8,16.67-41.79,24.86a28.14,28.14,0,0,1-7.53,2.5c-17.86,4.33-34.12,14.47-53.28,14.32-4.47,0-8.89,2.6-13.44,3.29-6.7,1-10.24-1.81-11.57-8.94,6.55.42,10.66-3.36,14.38-8.16,5.09-6.56,12.76-9.28,20-12.74,19.53-9.38,35.89-22.49,47.43-41.13,1-1.7,1.63-3.88,3.06-5.07s4.84-2.91,5.61-2.27c1.66,1.38,3.58,4.64,3,6.23-3.46,9.2-7.62,18.14-10.88,28.18,5.07-4.32,10.32-8.44,15.17-13,8.68-8.18,17.7-16.1,25.52-25,12.41-14.22,24.9-28.56,31.92-46.52.91-2.32,2-5.37,1.18-7.43a146.94,146.94,0,0,0-9.76-21.62c-1.29-2.26-5.37-3.33-8.39-4-2.81-.66-5.91-.14-8.86-.14-3-4.79-2.6-8.36,2-11.33,2.47-1.59,4.54-3.81,7.06-5.29,13.24-7.76,17.66-21,21.58-34.53a40.1,40.1,0,0,0,1.48-12.76c-.22-5.17,1.19-9.26,5.42-12,6-4,7.24-9.65,7.53-16.36.32-7.24,1.7-14.44,2.77-21.64.92-6.23,2.44-12.4,3-18.67.5-5.59,2.78-7.84,8.22-6.72,3.94,15.17,7.7,30.22,11.78,45.19,3.22,11.83,6.88,23.54,10.2,35.34a28.93,28.93,0,0,1,1.15,7.84c-.1,16.88,5.43,31.73,15.18,45.38,7,9.79,14.32,19.18,23.13,27.41a52.8,52.8,0,0,1,9.11,10.55c8.47,13.67,19.39,25.22,30.38,36.78a31.18,31.18,0,0,1,6.36,9.87,209.76,209.76,0,0,1,7,21.78c.59,2.2-.43,4.84-.72,7.27-2.41-.44-5.18-.27-7.16-1.43-5.14-3-9.83-6.79-14.9-10-3-1.85-6.32-3.09-9.5-4.61Zm-86.62,3.9c3.07,1.45,6.26,2,8,3.95,4.18,4.61,7.65,9.86,11.46,14.81,2.28,3,3,6.23.53,9.13-3.15,3.74-6.27,8.1-10.41,10.27-8,4.23-12.31,10.45-14.55,19-2.78,10.57-6.27,20.84-12.64,30.06-3.1,4.46-4.51,10.1-6.83,15.57,11.62-.59,22.13-1,32.64-1.69,7.61-.46,15.59.12,22.72-2,12.18-3.69,23.33-3,34.61,2.54,2.28,1.13,5.44.5,8.19.67-.8-2.6-2-3.7-3.37-4.23-10.68-4.08-13-7.59-12.48-18.35.25-6-.19-11.94-.2-17.91,0-9.85-3.91-17.89-10.89-24.7-2.19-2.15-3.85-4.86-5.67-7.2,1.5-1.7,2-2.65,2.81-3.14,8.5-5.29,10.53-13,8.42-22.26s-5.67-17.36-12.5-24.34c-13.53-13.8-21.36-30-18.36-50.1.35-2.36-1.18-5-1.84-7.52l-1.85.27C1713.41,924,1707.51,949.65,1701.53,975.6Zm48.22,218.61c-1.56,4.67-4.16,8.3-3.49,11.17,2.22,9.55-.44,18.36-2.23,27.41-.53,2.66-.34,5.46-.47,8.19,8.86-13.12,13.79-28.12,25.41-39.15l-6.93,2.26Z"/><path d="M1757.14,1554.75c2.18-2.23,6-3.7,3.5-8.75-1.84.17-4.09,0-6.09.65-7.92,2.52-15.76,5.3-23.64,7.95a44.15,44.15,0,0,1-7.62,2.31c-5.17.72-7.7-1.67-7.26-6.76.29-3.3,1-6.55,1.62-9.82.51-2.86,1.39-5.33-1.08-8.3-1.48-1.77-1.25-5.73-.58-8.4,3.89-15.43,7.13-30.94,8-46.88a27.89,27.89,0,0,1,1.54-6.8c3.92-12.34,1.35-24.16-1-36.56-2.72-14.27-11.73-25.13-16.56-38.09-3.26-8.76-7.42-17-14.16-23.81-1.43-1.45-2.08-5.07-1.32-7,1.24-3.09,4.22-3.47,7.61-2,4,1.7,7.18,3.63,9.85,7.61,7.21,10.77,15.23,21,23.2,31.23,1.88,2.41,4.84,4,7.3,6l1.38-1.4-5.82-6.13c.88-5.61,1.7-10.8,2.71-17.28l9.9,4.39c7.58-10.64,15.64-21.54,23.2-32.77,3-4.46,4.92-9.65,7.76-15.36,2.18-1.36,5.38-3.52,8.74-5.4,1.66-.93,3.66-2,5.42-1.84,6.73.52,11.94-2.57,17.65-5.56,9.94-5.21,20.46-9.34,30.85-13.66,6.09-2.53,12.63-4.07,18.52-7,4.33-2.12,7.7-2.13,10.62,1.47,3.54,4.36,8.24,6.65,13.35,8.19,8.76,2.64,14.9,9,20.33,15.54a106.06,106.06,0,0,0,21.34,19.24c5.13,3.54,8,7.87,6.92,14.21-1.47,8.82-3.17,17.61-4.53,26.45a74.87,74.87,0,0,0-1,12.76c.13,6.51,1.77,13.15.91,19.49-.62,4.52-4.29,8.63-7.6,11.34-8.85,2.54-18.14,4.12-26.42,7.91-8.05,3.68-14.79-.75-22-1.39-4.34-.38-3.35-5.57-1.83-9.19q5.22-12.4,10.37-24.86c.25-.61.43-1.26.68-1.87,6.16-15.19,2.93-27.24-9.89-37-5.7-4.32-22.86-5.26-29.25-1.45-14.59,8.72-24.85,21.82-35,35-3.62,4.69-7,9.59-10,13.81,0,9.12.09,17.84-.09,26.56a8.42,8.42,0,0,1-1.89,4.52c-6.63,8.58-13.39,17-20.54,26.12-.88-5.83-2.14-11.58-8.3-14.75-5.49-2.84-14.35-3.05-18.86.52s-6.35,9.63-3.54,16.32c2,4.78,5.29,9.06,8.13,13.47.87,1.36,3,2.36,3.13,3.65.84,10.32,10,13.34,16.32,18.71a14.26,14.26,0,0,0,9.09,3.34c5.43-.28,8.67,2.39,11.86,5.93,9.69,10.77,22.9,15.72,35.74,21.11,4.41,1.84,9.47,2.26,14.3,2.93,1.4.19,3.13-.77,4.46-1.61,1.68-1,3.55-2.22,4.56-3.83,7.9-12.57,17.11-24.57,17.26-40.54,0-3.11,1.74-6.19,2.6-9.3.49-1.79,1.24-3.62,1.18-5.42-.19-6.3,3.46-12,9.12-12.94,11.27-1.94,21,2.71,29.71,8.77,2.71,1.89,2.72,7.65,4.09,12a69.43,69.43,0,0,0-5,6c-1.43,2.13-3.74,4.79-3.39,6.82,1.29,7.38-2.09,13.34-3.91,20a117.47,117.47,0,0,1-14.6,32.61c-4.46,7-10.1,13.16-15.09,19.79-12.86,17.09-12.68,44.37,2.87,60.48.92,1,2.19,2,2.29,3.18.21,2.41.66,6.06-.63,7-1.62,1.24-5.26,1.11-7.36.13s-3.89-3.57-5.32-5.77c-5-7.73-10.84-14.87-12.19-24.67-1-7.46-3-8.79-10.37-12.38-6.21,4.8-13.1,8.45-21.65,7.87-1.55-.1-3.26,1.93-4.88,3l-9.41,6.16-6.94-4.65c-.89,1.3-2.27,2.38-2.19,3.33,1,11.62,2.07,23.08,12.17,31.39a89.1,89.1,0,0,1,24.91,33.18c3,6.85,3.15,7.09-4.41,10.08-1.93,8.69-3.82,17.15-5.7,25.61l1,.41c.78-1.5,1.51-3,2.34-4.5a61.53,61.53,0,0,1,25.34-24.69c10.2-5.42,19.72-12.18,29.28-18.72,5.54-3.8,11.69-4.87,17.93-4.54,2,.11,4.78,3.45,5.49,5.83.43,1.41-2.09,4.94-4,5.61-18.46,6.58-31.1,19.82-41.36,35.7a128.75,128.75,0,0,0-9.3,17.57c-2.69,6-1.71,12.06,1.66,18.71a9.32,9.32,0,0,0,2.68-9.2c-.88-4.36,1.64-6.15,5.64-6.14,3.78,0,9.32-1.65,9.59,4.12.69,14.68,9,26.83,12.93,40.42,2.5,8.61,10.55,15.64,16.25,23.27,1.37,1.84,4,3,4.75,5a9.19,9.19,0,0,1-.43,7.09c-.76,1.25-4.37,2-6,1.28-6.61-3-13.69-5.44-17.54-12.44a7.39,7.39,0,0,0-5-3.5c.37,2.37.74,4.73,1.12,7.11-.42.48-.74,1.17-1.26,1.4-13.75,6.16-21.64,18.09-29,30.22a78.2,78.2,0,0,0-7.93,18.23c-4.69,15.74-6.62,31.59,1.18,47.12,1.19,2.37,2.54,4.84,2.84,7.37a5.65,5.65,0,0,1-2.51,4.66c-1.37.65-3.84,0-5.32-.93-1.25-.78-1.73-2.75-2.6-4.17-6.62-10.69-8.82-12.5-22-18-18.81,7.64-29.35,22.51-35.23,41.36-6.57,21-9.69,42.72-12,64.56-1.34,12.86-4.09,25.78-3.62,38.58.5,13.8,3.45,27.61,6.36,41.19,3.13,14.6,7.12,29,11.38,43.35a84.59,84.59,0,0,0,8.6,20c8.32,13.57,17.44,26.65,26.28,39.9,1.75,2.61,3.75,5.61.34,7.7-1.55,1-5,0-6.93-1.17-3.08-1.88-5.62-4.64-8.36-7-1-.88-1.88-2.58-2.9-2.66-14.21-1-18.52-14.09-26.26-22.38a89.5,89.5,0,0,1-19.72-34.38c-1.82-5.76-3.26-12.15-10.9-14.16-2.13-.56-4-4.31-4.9-7-3-9.1-5.5-18.37-8.31-27.54-6.29-20.56-9.41-41.52-7-63,2-18.14,4.79-36.25,10.46-53.65,9.37-28.75,19.38-57.29,28.9-86,4.16-12.56,8.29-25.18,11.36-38,1.43-5.94.72-12.54.13-18.76-.29-3-.81-5.84,2.3-6.46,2-.4,5.1.92,6.68,2.49,7.39,7.37,14.83,8.85,24,3.31a65.3,65.3,0,0,0,24.11-26c1.65-3.14,1.36-5.78-.84-8.23-7.74-8.65-15.45-17.34-23.44-25.75-2-2.1-4.92-3.41-7.58-4.76-5.14-2.6-10.41-5-16.27-7.74,1.52,7.58,9.13,13.48,7.45,22.12-3.45,2.53-6,1.36-9-.93a84.15,84.15,0,0,0-13.36-8.59,20.75,20.75,0,0,0-16.38-1.2c-5.24,1.69-11,1.94-16.57,2.4-7,.59-9.46,2.93-7.52,9.38,2.38,7.91,3,15.36-.3,23.16-1.11,2.61-.94,5.92-.79,8.88.48,9.19,1.61,18.36,1.74,27.55a92.81,92.81,0,0,1-1.81,18.72c-1.42,7.45-3.61,14.77-5.67,22.09a14.9,14.9,0,0,1-3,6.16c-1.09,1.14-4,2-5,1.36a7.7,7.7,0,0,1-2.89-5.38c-.08-2.18,1.26-4.42,2-6.63,6.57-19.91,7.88-40.26,5.46-61-.73-6.26-.3-12.66-1-18.94-.87-8.16-.93-16.69-7.52-22.94,3.42-9.14,11.26-12.49,18.59-16.12,4.69-2.32,10-3.3,14.81-5.46,5.41-2.43,10.43-5.74,15.81-8.24,4.12-1.91,8.48-4.12,12.86-4.44s6.63-2.2,8.65-5.47a33.33,33.33,0,0,0,4.63-24c-2.59-14-5.42-28-9.39-41.7a39.23,39.23,0,0,0-19.45-24.24c-7.82-4.25-15-9.63-22.54-14.48-5-3.25-6.06-14-1.73-19.29,3.15-3.87,6.32-7.76,9.79-11.33,8.21-8.42,16.48-16.76,21-27.91Zm28.55-29.94c-4.85,10.23-3.37,18.26-2.11,26.49,1.21,7.9,4.38,14.14,12,16.74,7.42,2.53,13.39-1.54,18.77-6.14,3.21-2.75,6.12-5.86,8.61-8.27,4,.53,6,4.56,11.26,1.88C1817.26,1545.57,1798.52,1541,1785.69,1524.81Z"/><path d="M1757.14,1554.75l-.48.49c-1.68,2-3.09,4.34-5.12,5.89-11.59,8.84-23.53,17.24-35,26.28-9.09,7.19-17.62,15.09-26.43,22.64-2.25,1.92-4.39,4.31-7,5.39-12.27,5-21.24,14.66-31.69,22.21a8.54,8.54,0,0,0-3,3.87c-3,9.12-5.73,18.36-8.87,27.45-.75,2.18-2.71,3.94-4.12,5.89-1.85-1.62-4.51-2.89-5.4-4.94-2.39-5.45-3.88-11.3-6-16.89a28.21,28.21,0,0,0-9.32-12.44c-5-4-8.64-9.8-12.23-15.24-1-1.57.13-4.61.33-7.64,9.48,1.6,17.93,4.6,25.61-2-2.42.34-4.91,1.21-7.26.91-2.74-.35-6.44-1-7.7-2.86s-.57-5.73.6-8c5.83-11.53,12.24-22.76,18.2-34.22,8-15.35,8.69-31.92,6.87-48.6a60.7,60.7,0,0,0-5.35-18.05c-2.21-4.88-1.93-9,.6-13.21,4.42-7.27,9.15-14.37,14.42-22.57-2.21,1.36-4,2-5,3.19-7.65,9-17.4,9.06-27.26,5.68-7.73-2.65-15-6.76-23.59-10.77,1,2.37,1.32,4.1,2.26,5.41,2.65,3.75,6,7.09,8.23,11,2.41,4.21,2,7.85-1.44,12.52-4.55,6.25-6.89,14.16-9.9,21.48-9.3,22.63-16.65,46.17-31.53,66.18a37.9,37.9,0,0,0-5.24,10.7c-2.4,7.33-6.7,12-14.65,13-6.33.79-9.72,4.65-11,10.43l1.66,1.65,3.19-6.08c2,.56,2.89.54,3.15.92,2,3,3.69,6.35,6,9.15,2.88,3.49,5.85,7.16,9.5,9.72,9.32,6.51,12,5.88,18.87-2.85.82-1,1.43-2.62,2.5-3a33.18,33.18,0,0,1,6.35-1.23c.27,2.06,1.55,5,.65,6-5.17,5.86-4.6,13.78-7.62,20.44-2,4.39,1,10.89,1,16.44,0,6.42,3.6,9.6,8.65,12.09,3,1.46,5.24,3.67,3.41,7.08-2.14,4-5.15,2.8-8.42.88a49.15,49.15,0,0,0-9.2-3.7c-11.23-3.76-20.83-.17-25.9,10.33-1.25,2.6-.91,6.42-.22,9.44,3,13.36,7.55,16.8,21,17.91a75.54,75.54,0,0,1,15.53,3c6.9,2.08,12.35.24,18.78-2.9,11-5.36,16.39-15.5,24.49-23.25,7.08-6.78,17.44-10.15,26.4-14.94,1.13-.61,2.55-.65,3.77-1.11,8-3,9.1-2,8,5.75-11.71,8.66-23,16-33,24.75-6.24,5.45-12.16,12.19-11.35,22,.11,1.29-1.37,2.89-2.42,4.08-6.32,7.22-12.87,14.25-19,21.58-3,3.56-6,5.63-10.92,4.37-4.17-1.08-8.21-1.27-12.57.67-2.76,1.23-6.52.23-10.41.23l-6.11-9.09c-4.69,2.39-9.15,4.3-13.24,6.81-7.58,4.64-7.28,13.43.52,17.62,7,3.73,14,7.43,21.11,10.74,2.21,1,5,.81,7.57.94.93,0,2.11-1.09,2.8-.8,10,4.21,16.49-3.57,25-7.68,11,9.3,22.37,18.49,33.26,28.2,9.24,8.23,10.84,20,13.32,31.36,4.16,19,7.69,38.13,12.82,56.85,3.26,11.89,9.53,22.59,20.13,30.19,6.76,4.84,6.34,6.36,2.32,14.08a144.05,144.05,0,0,0-14,43.36c-2.38,14.45-4.5,28.87-4,43.56.16,4.89-.53,10,.77,14.62,2.88,10.17,6.62,20.11,10.33,30,2.31,6.18,1.12,9.19-5.37,8.86-8.21-.42-13.14,4-17.17,9.86-14.7,21.32-29.06,42.88-43.76,64.2-6.57,9.54-12.65,19.43-22.19,26.69-3.49,2.64-5.37,7.44-7.91,11.29-1.26,1.92-2,4.4-3.64,5.82-2.58,2.2-5.54,2.12-7.74-1-2.44-3.45-1.54-12.44,1.22-15.67,12.95-15.15,24.81-31,32.53-49.62.64-1.53.94-3.41,2-4.53,12.39-12.84,13-30.18,17.38-46,2.49-8.9,3.89-18.15,5.19-27.32a55.52,55.52,0,0,0,0-14.85c-2-15.14-4.46-30.22-6.7-45.33a27.92,27.92,0,0,1-.11-4c0-7.9.84-15.92-.2-23.68-2.87-21.34-5.88-42.56-15-62.62-5.1-11.21-9.85-22.46-16.41-32.92-7.52-12-19.32-19-30.45-26.86-3-2.12-6.12-2-9.07.7-3.18,2.89-7.29,4.13-11.08,2.21-7.74-3.93-15.61-2.45-23.41-1.29-3.18.47-6.53,1.36-7.88-1.76-1-2.34-1.06-6.58.42-8.29,10.68-12.37,13.23-28.46,19.63-43.18l-7.28,6.12c-6.16-1.8-12.58-3.44-18.83-5.57-9.4-3.21-11.19-7.86-6.64-16.81,4.76-9.36,9.69-18.63,13.55-28.9l-6,5.3c-.5-.12-1.34-.06-1.6-.42-8.4-11.65-20.87-18.52-32.1-26.7-4.19-3.06-10.47-3.12-15.6-5-2.9-1.1-6.44-2.62-7.84-5-1.86-3.19.72-6.11,3.62-8.28s5.3-5.23,8.43-7c11.63-6.5,20.38-15.93,28-26.54,5.43-7.51,10.79-15.08,16.17-22.63,6.49-9.1,6.86-19.6,5.06-29.78-2.6-14.8-7-29.16-19.38-39.4a17.32,17.32,0,0,1-5-6.16c-.91-2.13-1.53-5.7-.39-7s4.72-1.3,7-.84c2.84.56,5.38,2.86,8.2,3.22,7.52,1,14.62-.28,20.19-6.14,5.26-5.53,10.75-10.86,15.72-16.63,4.41-5.12,9.55-9.84,6.94-18.3-.83-2.69,1.36-6.85,4.41-10.24,4.73-5.25,7.71-12.36,10.41-19.09,7.23-18,13-36.25,11.79-56.1-.36-6.21,1.34-12.51,1.79-18.79.43-6.12-.64-11.91-4.89-16.76-2.91-3.33-2.19-6.74-1.47-11,1.34-7.91,6.65-11.89,11.84-16.62,3.84-3.51,6.87-7.9,10.49-11.68,1.23-1.27,3.33-2.8,4.71-2.53s2.68,2.47,3.88,3.93a2.65,2.65,0,0,1,.51,1.9c-2,10.31,4.34,19,5.77,28.66,2.4,16.2,12.47,22,28.64,17.62,13.76-3.69,27.33-8.09,41.1-11.75,5.35-1.43,11-1.13,15.07-6.21,2.33-2.89,6.1-2.09,8.78.67a26.53,26.53,0,0,1,2.82,4.07c5.07,7.73,10.21,15.42,15.15,23.22,3.34,5.27,3,12.91-1.41,16.3-15.7,12.19-22.23,29.51-26.81,47.74-3.46,13.82-7,27.78-8.42,41.9-1.34,13.29-.13,26.87.34,40.32.11,3.12,1.78,6.18,2.76,9.33,7,.39,12.83-1.42,17.32-5.31,17.59-15.19,39.38-23.06,59.07-34.55,2.08-1.21,4.75-1.43,8.43-2.48C1758,1551.87,1757.57,1553.31,1757.14,1554.75Z"/><path d="M1100.8,1827c-5.85-5.09-3.42-12-4.68-17.84a149.6,149.6,0,0,1-2.3-17.58,16.36,16.36,0,0,1,.62-6.8,48.33,48.33,0,0,0,1.58-26.44c-2.41-12-3.32-24.38-8.86-35.62-1.32-2.68-2.34-5.54-3.89-8.08-4.8-7.85-7.87-8.84-16.55-5.75l-6.33,2.23c-5.26-6.63-5.65-7.16-.23-11.09,13.3-9.63,13.36-22.32,10.15-36.53-5.09-22.52-17.49-40.9-33.26-56.74-8-8.06-18.85-13.35-28.56-19.66-11.39-7.41-23-14.49-34.38-21.9-3.73-2.42-4-7.25-.22-9.88,9-6.17,18.08-12.2,27.58-17.48,6.92-3.85,14.57-6.37,21.85-9.58,8.6-3.8,16.82-8.11,21.36-17.07.36-.72,1.67-1,1-.59,14.87,3,28.34,5.78,41.82,8.5,5.31,1.07,10.63,2.09,17.25,3.38-1.34,3.85-1.62,6.59-3,8.45-7.81,10.14-6.84,21.13-3.17,32.19,7.39,22.3,13.43,45.09,24.58,66.06,2.86,5.39,3.43,12,5,18.08,1.13,4.48,2.24,9,3.08,13.52.41,2.23,1,5,.12,6.79-3.84,7.18-1.5,13.76,1.66,20,2.76,5.45,2.81,10.72,1.64,16.4-.92,4.52-.62,9.48-2.38,13.59a122.1,122.1,0,0,1-11.26,20.84c-5.61,8.23-8.89,16.77-9.07,26.84-.13,6.83-2.11,13.6-2.58,20.44-.72,10.74-1,21.51-1.18,32.27C1108,1822.65,1106.18,1825.49,1100.8,1827Z"/><path d="M2433.08,1380.63c-.54-16.15.9-31.91,7.4-46.73,4.5-10.26,6.14-20.75,6.75-31.87,1.68-30.35-4.67-59.48-12.42-88.4-4.63-17.29-10-34.41-15.78-51.36-2.63-7.74-6.9-14.94-10.63-22.29-13.09-25.84-28.43-50.16-49.17-70.64-10.59-10.45-21.59-20.49-32.55-30.56-3.1-2.84-6.13-5.2-11.41-4.09-4.81,1-7.21-3.13-4.71-7.8,2.62-4.88,6.3-9.21,9.64-13.69,4.55-6.11,9.1-12.22,13.87-18.16,4.53-5.65,9.22-6,14.25-.9,14.6,15,29.34,29.78,43.36,45.26,10.22,11.29,20.55,22.71,26.86,36.9,5.9,13.3,12.41,26.42,17.09,40.15a547,547,0,0,1,16.63,57.23c4.25,19.06,6.38,38.6,9.2,58a204.7,204.7,0,0,1,1.58,48.53c-.12,1.32.17,2.76-.26,4-9,25.07-6,52.45-15.05,77.5-1.91,5.29-3.64,10.66-5.31,16C2441.08,1382,2438.15,1382.15,2433.08,1380.63Z"/><path d="M2236,939.71,2224,942.79c-2.63-5.77-5.36-12-8.27-18.09-4.29-9-8.62-17.9-16.21-24.87a13.53,13.53,0,0,1-4.1-8.72,214,214,0,0,1,1.34-26.78c.69-6.08,1.25-11.64-2.27-17.24-5-7.93-11.17-8.73-17.27-1.59-8.75,10.24-9.76,10.92-22.46,15.18-3.44-3.65-3.74-7.13-.64-11.49,3.65-5.11,6.36-10.88,9.73-16.2,8.68-13.73,10.62-29.11,11.3-44.83,0-1,0-2,0-3,.09-3.38.11-7.07,4.38-7.8,3.64-.61,4.85,2.22,6.22,5.15,5.21,11.09,10.3,22.27,16.25,33,6.14,11,13.56,21.35,23.79,29.07,7.94,6,16.37,11.32,24.44,17.15,4.56,3.29,8.84,7,13.23,10.5,3.65,2.93,2.73,6.94,1.27,10.07-5.73,12.3-3.73,23.65,2.16,35.32,3.9,7.71,10.17,12,17.36,15.43,4.76,2.3,9.81,4,14.67,6.1,8.86,3.83,12.08,9.62,10.11,19.07-.47,2.29-2.18,5.41-4.09,6.14-10.1,3.89-18.41,10.46-27,16.68a22.36,22.36,0,0,1-4.4,2c-7.22-3.92-14.42-7.36-21.13-11.58-10.3-6.47-19.9-4-28.76,2.17-12.49,8.72-22.24,19.88-27,34.77-1,3-1.09,7.13-5.76,6.82-3.32-.22-4.91-4.48-4-9.69,2.42-13.48,9.72-24.59,17.41-35.45,2.86-4,5.92-8.15,9.64-11.34,7.14-6.13,14.82-11.63,22.28-17.39Z"/><path d="M1939.16,1139.88c-11.89,18-6.18,35.4-.08,51.53,4,10.47,13.77,17.9,26.57,18.19,4.33.1,8.77-.49,13,.3,2.46.46,6,2.72,6.42,4.69.64,3.33-1.69,5.89-5.88,6.42-23.14,3-37.7,16.3-45.3,38-3.85,11-8,21.85-11.65,32.89-2.08,6.28-3.54,12.59-2,19.54s-3.81,11.23-7.52,15.49c-1.68-.33-2.65-.23-2.9-.61a43.65,43.65,0,0,0-21.27-17.13c-3.33-1.29-4.9-4-5.29-7.76-1.07-10.29-.31-19.89,9.47-26,13.51-8.42,17.25-32.38,11.67-44-2.79.49-5.73,1.53-8.57,1.31a7.8,7.8,0,0,1-5.33-3.3c-.63-1,.79-3.46,1.57-5.14.39-.84,1.43-1.37,2.1-2.11,9.07-10,9.65-19,1.21-29.38-4.83-5.92-10.35-11.28-15.66-16.79-7.93-8.26-8.09-10.12-1.09-19.47,2.19-2.92,4.77-5.6,6.63-8.72,2.63-4.44,3.6-9.21.45-14.68-11.41-.29-20.39,4.18-26.53,13.85-2.29,3.6-3.37,7.94-5.43,11.71-1,1.77-3,3-4.48,4.43-1.36-2-3.64-3.86-3.88-6a43.94,43.94,0,0,1,.65-11.93c1-6.18,1.94-12.48,3.94-18.38,2.43-7.16,4.54-8.18,12.09-7.2,8.58,1.12,17.2,2.25,25.62,4.18C1904.78,1127.74,1921.76,1132.4,1939.16,1139.88Z"/><path d="M2306.64,1259.42c0-2.66.29-4,0-5.21-.88-3.08-3.58-6.69-2.7-9,1.32-3.42,4.92-6.08,7.86-8.72,7.89-7.08,16.06-13.85,23.88-21,3.41-3.13,6.14-7,9.32-10.38,11.29-12.08,14.81-27.18,16.43-42.9.36-3.47-.7-7.19-1.57-10.68-1.36-5.46-3.7-10.73-4.49-16.25-.53-3.67-2.35-5.7-4.47-8.3a187.52,187.52,0,0,1-14.42-20.12c-1.27-2.06-.19-5.57-.18-8.42,2.73.07,5.9-.73,8.11.38,5.23,2.64,11,5.31,14.72,9.57,5.25,6,12.89,10.93,13,20.49,0,1.28,1.73,2.68,2.88,3.78,6.12,5.83,9.78,12.36,6.79,21.14-3.7,10.87-1.24,21.63.92,32.32,2.22,11,4.76,22,7.15,33,.07.32,0,.79.15,1,9.08,8.64,2.21,18.47,2.12,27.8,0,3-.32,6,.23,8.92,1,5.36-1.43,7.32-6.69,7.59-5.21-6.07-.7-14-3.77-22-2.77,2.73-5.28,4.7-7.17,7.15-12.58,16.32-25.07,32.72-30.85,53a4.91,4.91,0,0,1-.23,1c-2,3.59-2.95,9.32-8.66,7.78-6.42-1.73-3.06-6.9-2.36-10.82,1.92-10.7-.1-20.25-7.7-28.34a27.59,27.59,0,0,1-4.31-5.49C2317.75,1261.51,2313.73,1258.71,2306.64,1259.42Z"/><path d="M2036.68,1423.05c-6.77-1.39-9.13-4.06-7.21-9.54,3.61-10.31,7-20.69,10.66-31,5.84-16.59,14-32.73,17.13-49.8,4-21.79,13.57-42.54,12.55-65.25,4.21-10.89-1.78-20.77-3.32-31-.8-5.39-.58-9.23,3.9-13.22,10.22-9.08,13.3-21.66,15.06-34.64a54.87,54.87,0,0,1,1.42-5.54c2.59,1.24,4.71,1.88,6.39,3.11,6.39,4.68,12.21,10.33,19,14.17,9.59,5.38,15.34,13.34,9,28.69-9,21.9-14.51,44.76-20.6,67.43-1.84,6.83.33,15.12,2.05,22.42,1.28,5.41.58,8.64-4,11.85-25.72,18.21-41.8,44-55.33,71.63-2,4.09-2.64,8.85-4,13.26C2038.7,1418,2037.69,1420.37,2036.68,1423.05Z"/><path d="M1505.24,1168.42c10.63-8.47,22.71-10.6,33.55-17,2.52,4.27,5.06,7.74,6.76,11.59,8.27,18.71,9.8,38,6.85,58.32a127.31,127.31,0,0,1-11,37c-4.45,9.33-9.15,18.3-19.93,22.24-3.57,1.31-6.28,4.83-9.69,6.82-4.87,2.84-5.81,2.32-9.92-4.29,4.43-3.19,9.06-6.24,13.37-9.68,7-5.57,11.49-12.26,11.8-21.83.24-7.8,2.58-15.52,3.28-23.34.88-9.9,1.89-19.91,1.31-29.79-.68-11.56-9.31-18.52-17.84-25C1511.56,1171.66,1508.87,1170.49,1505.24,1168.42Z"/><path d="M1838.31,1380.53c-3,20.45-6.2,40.23-8.85,60.08-1.61,12.12-2.22,24.37-3.67,36.51-1.26,10.51-3.07,20.94-4.63,31.41-.14,1,.19,2.32-.35,2.91-1.83,2-3.82,5.21-6,5.4-2.93.26-4.68-2.53-5-6.1-1.35-13.59,2.31-26.49,6.4-39,3.44-10.49,1.25-20.19-.33-30.13-.87-5.48-2.92-10.87-5.06-16-3.11-7.51-1.72-14.33,2.42-20.73,4.63-7.17,9.72-14,14.51-21.11C1830.19,1380.14,1833,1377.83,1838.31,1380.53Z"/><path d="M1564.36,1332.48c-4.9,1-9.37,1-12.9,2.8-4,2-7.06,5.74-10.75,8.9a31.54,31.54,0,0,1-12.76-17.64c-3-9.8-5.11-19.89-7.36-29.91a13.38,13.38,0,0,1,.26-6.74c1-3.15,7-4.27,8.1-1.44,6.94,17.09,24,25.44,33.78,40A36,36,0,0,1,1564.36,1332.48Z"/><path d="M1259.89,1328.22c-2.76-1.42-5.47-2.94-8.29-4.25-4.07-1.9-8.1-4-12.37-5.35s-5.85-4.22-5.64-8.15c.53-10.11,5.87-18.2,11.9-25.74,1-1.25,4.84-1,7-.35,2.36.75,4.29,2.85,5.91,4,1.36,13,2.68,25.5,4,38Z"/><path d="M1856.22,1439.14c-6.55-4.14-7.59-8.22-6.55-13.27,2.73-13.26,5.31-26.55,8-39.81.4-1.94.64-4.26,1.85-5.59,2.07-2.28,4.64-4.7,7.44-5.45,1.28-.35,3.92,2.9,5.36,4.93,3.66,5.16,3.29,10.23-.36,15.56-7.22,10.59-10.77,22.59-12.62,35.19C1859,1433.32,1857.51,1435.78,1856.22,1439.14Z"/><path d="M2888.32,617.53c-.5,4.91-.31,8.75-1.4,12.2-1.56,5-3.4,10.08-6.27,14.37-10.16,15.24-22.57,28.7-35.51,41.54-10.18,10.1-21.78,18.57-35.34,23.76-2.79,1.06-7,2-9.05.64-3.74-2.45-.45-5.74,1.05-8.62,5.95-11.42,10.33-24,18-34.11,13.7-18,29.84-34.11,50.5-44.52C2876,619.92,2881.44,615.09,2888.32,617.53Z"/><path d="M1023.05,2388.67v27.77q0,15.3-1.54,22.43a31.59,31.59,0,0,1-6.58,13.33,29.67,29.67,0,0,1-12.95,9.14,51.64,51.64,0,0,1-18.15,2.95,64.79,64.79,0,0,1-19.4-2.52,26.46,26.46,0,0,1-12.35-7.61,30.06,30.06,0,0,1-6.28-12.3q-1.87-7.21-1.88-21.66v-29.06q0-15.79,3.42-24.69a28.4,28.4,0,0,1,12.3-14.27q8.9-5.38,22.73-5.38,11.63,0,20,3.46a31.23,31.23,0,0,1,19,20.46Q1023,2376.62,1023.05,2388.67Zm-34.52-8.55c0-5.81-.32-9.47-.94-11s-2-2.26-4-2.26-3.42.75-4.1,2.26-1,5.17-1,11v51.19c0,5.35.35,8.84,1,10.46a3.93,3.93,0,0,0,4,2.44q3.09,0,4.06-2.22t1-9.57Z"/><path d="M1104.91,2385.08h-30.59v-6.15c0-5.25-.3-8.56-.9-10s-2.09-2.09-4.49-2.09a5.1,5.1,0,0,0-4.35,1.92,9.49,9.49,0,0,0-1.46,5.77,29.24,29.24,0,0,0,.73,7.64c.48,1.63,1.94,3.41,4.36,5.35s7.39,4.75,14.91,8.45q15,7.35,19.74,13.85t4.7,18.88q0,13.85-3.59,20.89t-12,10.86q-8.42,3.8-20.29,3.8-13.17,0-22.52-4.1t-12.86-11.11q-3.49-7-3.5-21.19v-5.47h30.59v7.18q0,9.14,1.15,11.87c.77,1.83,2.3,2.74,4.57,2.74q3.68,0,5.13-1.84t1.45-7.73q0-8.11-1.88-10.17t-20.08-12.13q-15.21-8.55-18.54-15.51a38,38,0,0,1-3.33-16.54q0-13.59,3.59-20t12.17-9.95a52.51,52.51,0,0,1,20-3.5q11.28,0,19.18,2.86t12.13,7.56q4.23,4.7,5.13,8.72a63,63,0,0,1,.9,12.56Z"/><path d="M1147.63,2392.77h-32.38v-7.61q0-13.15,3-20.29t12.18-12.61q9.13-5.46,23.75-5.46,17.52,0,26.41,6.19t10.68,15.21q1.79,9,1.79,37.13v56.91h-33.58v-10.11a21.06,21.06,0,0,1-20.08,12.16,29.16,29.16,0,0,1-16.62-5.09q-7.56-5.07-7.56-22.26v-9.31q0-12.74,4-17.35t19.91-10.76q17-6.67,18.2-9t1.2-9.4q0-8.9-1.32-11.58a4.54,4.54,0,0,0-4.4-2.69q-3.51,0-4.36,2.26t-.86,11.75Zm10.94,15.55q-8.29,6.06-9.61,10.17t-1.33,11.79q0,8.8,1.16,11.36t4.57,2.57q3.24,0,4.23-2t1-10.55Z"/><path d="M1279.31,2348.85l-14,45.16,18.2,68.23h-33.2l-10.77-49.42,0,49.42H1205V2323.9h34.52l0,58.07,10.77-33.12Z"/><path d="M1319.47,2392.77h-32.38v-7.61q0-13.15,3-20.29t12.18-12.61q9.14-5.46,23.75-5.46,17.52,0,26.4,6.19t10.69,15.21q1.78,9,1.79,37.13v56.91h-33.58v-10.11a21.06,21.06,0,0,1-20.08,12.16,29.16,29.16,0,0,1-16.62-5.09q-7.56-5.07-7.56-22.26v-9.31q0-12.74,4-17.35t19.91-10.76q17-6.67,18.2-9t1.2-9.4q0-8.9-1.33-11.58a4.53,4.53,0,0,0-4.4-2.69c-2.33,0-3.79.75-4.35,2.26s-.86,5.43-.86,11.75Zm10.94,15.55q-8.29,6.06-9.61,10.17t-1.33,11.79q0,8.8,1.15,11.36t4.58,2.57q3.24,0,4.23-2t1-10.55Z"/><path d="M1486.18,2323.9v138.34h-34.52V2454a35.57,35.57,0,0,1-10.42,7.71,26.7,26.7,0,0,1-11.45,2.57,23.25,23.25,0,0,1-13.93-4.23q-5.89-4.23-7.56-9.79t-1.67-18.11V2379.1q0-13.08,1.67-18.55t7.64-9.61a24.46,24.46,0,0,1,14.27-4.14,28.21,28.21,0,0,1,21.45,9.25V2323.9Zm-34.52,53.49q0-6.24-1.07-8.38t-4.23-2.13q-3.08,0-4.14,1.92t-1.07,8.59v55.54c0,4.61.34,7.65,1,9.1a3.92,3.92,0,0,0,3.93,2.18q3.33,0,4.44-2.44t1.11-11.92Z"/><path d="M1576.76,2407.55h-44.69v24.52q0,7.69,1.11,9.92t4.27,2.22c2.62,0,4.37-1,5.26-2.95s1.32-5.77,1.32-11.41V2414.9h32.73v8.37q0,10.52-1.33,16.15a32.74,32.74,0,0,1-6.19,12,30.12,30.12,0,0,1-12.35,9.61q-7.47,3.21-18.75,3.21a54.69,54.69,0,0,1-19.32-3.16,30.94,30.94,0,0,1-13-8.68,31.37,31.37,0,0,1-6.45-12.13q-1.78-6.62-1.79-19.27V2388q0-14.86,4-23.45a27.61,27.61,0,0,1,13.16-13.16,46.37,46.37,0,0,1,21-4.57q14.54,0,24,5.51a30.29,30.29,0,0,1,13.25,14.61q3.8,9.1,3.8,25.59Zm-34.61-18.46v-8.29q0-8.79-.94-11.36a3.71,3.71,0,0,0-3.84-2.56c-2.4,0-3.88.72-4.45,2.18s-.85,5.37-.85,11.74v8.29Z"/><path d="M1658.53,2385.08h-30.59v-6.15c0-5.25-.3-8.56-.89-10s-2.1-2.09-4.49-2.09a5.12,5.12,0,0,0-4.36,1.92q-1.46,1.92-1.45,5.77a28.8,28.8,0,0,0,.73,7.64q.72,2.45,4.35,5.35t14.91,8.45q15,7.35,19.74,13.85t4.7,18.88q0,13.85-3.59,20.89t-12,10.86q-8.41,3.8-20.3,3.8-13.15,0-22.51-4.1t-12.86-11.11q-3.51-7-3.51-21.19v-5.47H1617v7.18q0,9.14,1.15,11.87t4.57,2.74q3.68,0,5.13-1.84t1.45-7.73q0-8.11-1.88-10.17t-20.08-12.13q-15.21-8.55-18.54-15.51a38,38,0,0,1-3.34-16.54q0-13.59,3.59-20t12.18-9.95a52.46,52.46,0,0,1,20-3.5q11.28,0,19.19,2.86t12.13,7.56q4.23,4.7,5.13,8.72a63.92,63.92,0,0,1,.89,12.56Z"/><path d="M1706,2323.9v18h-35.55v-18Zm0,24.95v113.39h-35.55V2348.85Z"/><path d="M1796.79,2348.85v87.33q0,17.68-.81,22.85t-5.77,10.94q-4.95,5.78-13.8,8.8t-22.26,3q-16.49,0-26.49-5.6t-10.34-22h33.5q0,7.51,5.47,7.51c2.62,0,4.36-.76,5.21-2.3s1.28-4.77,1.28-9.67v-8.55a32.83,32.83,0,0,1-9.36,6.08,26.37,26.37,0,0,1-10.29,2.06q-9.32,0-15.34-3.76a19.29,19.29,0,0,1-8.25-9.87q-2.22-6.12-2.22-17.39v-41.19q0-16.15,5.81-23.24t17.69-7.09a26.26,26.26,0,0,1,11.84,2.65,28,28,0,0,1,9.52,8l2.48-8.56Zm-34.61,30.08c0-5.19-.3-8.49-.89-9.92s-1.93-2.13-4-2.13a4.37,4.37,0,0,0-4.23,2.43c-.82,1.62-1.24,4.83-1.24,9.62V2417c0,5.08.32,8.37.94,9.87s1.94,2.27,3.94,2.27c2.27,0,3.76-.91,4.44-2.74s1-5.95,1-12.39Z"/><path d="M1844.21,2348.85l-.59,10.44a25.81,25.81,0,0,1,9.18-9.37,24.67,24.67,0,0,1,12.52-3.12q8.88,0,14.53,4.18a18.6,18.6,0,0,1,7.26,10.56q1.62,6.36,1.62,21.23v79.47h-34.52v-78.53q0-11.7-.77-14.27t-4.27-2.56q-3.68,0-4.61,2.94t-.94,15.77v76.65h-34.53V2348.85Z"/><path d="M2009.56,2388.67v27.77q0,15.3-1.54,22.43a31.47,31.47,0,0,1-6.58,13.33,29.7,29.7,0,0,1-12.94,9.14,51.7,51.7,0,0,1-18.16,2.95,64.79,64.79,0,0,1-19.4-2.52,26.46,26.46,0,0,1-12.35-7.61,30.06,30.06,0,0,1-6.28-12.3q-1.87-7.21-1.88-21.66v-29.06q0-15.79,3.42-24.69a28.37,28.37,0,0,1,12.31-14.27q8.88-5.38,22.72-5.38,11.63,0,20,3.46a31.23,31.23,0,0,1,19.05,20.46Q2009.55,2376.62,2009.56,2388.67Zm-34.52-8.55c0-5.81-.32-9.47-.94-11s-2-2.26-4-2.26-3.42.75-4.1,2.26-1,5.17-1,11v51.19c0,5.35.35,8.84,1,10.46a3.93,3.93,0,0,0,4,2.44q3.07,0,4-2.22t1-9.57Z"/><path d="M2064.93,2323.9v17.51q-10.68,0-12.6,1t-1.93,5.6v3.59h14.53v17.94h-8.2v92.72h-34.52v-92.72h-7.1v-17.94h7.1q0-11.19.76-14.95a12.85,12.85,0,0,1,3.81-6.71,19.53,19.53,0,0,1,8.5-4.49q5.46-1.53,17-1.53Z"/><path d="M2115.52,2323.9v17.51q-10.7,0-12.61,1T2101,2348v3.59h14.53v17.94h-8.21v92.72h-34.52v-92.72h-7.09v-17.94h7.09q0-11.19.77-14.95a12.83,12.83,0,0,1,3.8-6.71,19.57,19.57,0,0,1,8.51-4.49q5.46-1.53,17-1.53Z"/><path d="M2157.64,2323.9v18H2122.1v-18Zm0,24.95v113.39H2122.1V2348.85Z"/><path d="M2246.34,2391.66h-32.56v-13.08c0-4.55-.37-7.65-1.11-9.27a4.1,4.1,0,0,0-4.1-2.43q-3,0-4,2.13t-1,9.57v53.49q0,6.07,1.54,9.1a4.85,4.85,0,0,0,4.52,3,4.68,4.68,0,0,0,4.75-3.16q1.23-3.16,1.24-12v-13.5h30.76a180.84,180.84,0,0,1-1,20.38,32.7,32.7,0,0,1-5.73,13.93,30.58,30.58,0,0,1-12.6,10.77q-7.79,3.63-19.23,3.63-14.61,0-23.16-5a27.57,27.57,0,0,1-12.09-14q-3.54-9-3.54-25.6v-32.21q0-14.44,2.9-21.79t12.39-13.12q9.49-5.76,23.07-5.76t23.07,5.72q9.57,5.73,12.74,14.44T2246.34,2391.66Z"/><path d="M2334.78,2407.55h-44.69v24.52q0,7.69,1.11,9.92t4.27,2.22c2.62,0,4.37-1,5.26-2.95s1.32-5.77,1.32-11.41V2414.9h32.73v8.37q0,10.52-1.33,16.15a32.74,32.74,0,0,1-6.19,12,30.12,30.12,0,0,1-12.35,9.61q-7.47,3.21-18.75,3.21a54.69,54.69,0,0,1-19.32-3.16,30.94,30.94,0,0,1-13-8.68,31.37,31.37,0,0,1-6.45-12.13q-1.8-6.62-1.79-19.27V2388q0-14.86,4-23.45a27.61,27.61,0,0,1,13.16-13.16,46.37,46.37,0,0,1,21-4.57q14.53,0,24,5.51a30.29,30.29,0,0,1,13.25,14.61q3.8,9.1,3.8,25.59Zm-34.61-18.46v-8.29q0-8.79-.94-11.36a3.71,3.71,0,0,0-3.84-2.56c-2.4,0-3.88.72-4.45,2.18s-.85,5.37-.85,11.74v8.29Z"/></g></g></svg>